<?xml version="1.0" encoding="UTF-8"?><svg id="a" xmlns="http://www.w3.org/2000/svg" width="1920" height="2400" viewBox="0 0 192 240"><defs><style>.b{stroke:#fff;stroke-miterlimit:10;stroke-width:.6px;}.c{stroke-width:0px;}</style></defs><rect class="c" width="192" height="240"/><path class="b" d="M12.27,232.02c4.99.06,10.01-.41,15-.29,5.84-.24,11.78-.16,17.49-1.53,5.29-1.3,6.91.85,11.66,1.56,1.9.24,3.92.21,5.83.24,2.85.18,5.82-.17,8.33-1.63,2.02-1.2,4.32-2,6.66-2.2,3.29-.31,6.71-.67,10-.32,1.75.54,3.35,1.77,5,2.55,3.33,1.68,7.19,1.66,10.83,1.62,3.59.03,7.24-.01,10.83-.11,2.75-.03,5.58.19,8.33.1,4.15-.08,8.35-.59,12.5-.18,4.42.16,8.91.3,13.33.1,2.79-.24,5.48-1.82,8.33-1.37,2.49.4,4.94,1.58,7.5,1.47,1.96-.08,3.92-.83,5.83-1.22,3.29-.71,6.74-.4,10,.31"/><path class="b" d="M12.27,229.83c2.78.03,5.57-.68,8.33-.84,2.47-.13,5.03.31,7.5.04,2.78-.22,5.55-1.03,8.33-1.25,3.03-.02,6.13.34,9.16.24,3.37-.21,6.7.58,10,1.17,2.17.35,4.47.41,6.66.5,1.62.11,3.38.26,5,0,2.02-.3,3.98-1.23,5.83-2.03,2.19-.85,4.44-1.83,6.66-2.6,11.91-3.51,6.84,5.02,23.33,4.47,5.81.19,11.68.56,17.49.15,2.77-.29,5.54-1.2,8.33-1.33,2.24-.05,4.48.72,6.66,1.07,3.01.35,6.13.37,9.16.41,1.64-.01,3.41-.15,5-.58,1.86-.52,3.88-1.15,5.83-.83,2.21.37,4.4,1.38,6.66,1.41,2.81.06,5.55-1.02,8.33-1.26,3.04-.41,6.16-.05,9.16.47"/><path class="b" d="M12.27,227.62c2.91-.04,5.44-2.01,8.33-2.12,1.65-.06,3.37.44,5,.59,3.14.21,6.18-.95,9.16-1.76,3.43-.94,6.63,1.47,10,1.8,3.29.46,6.69.41,10,.72,4.14.29,8.34.76,12.5.77,3.44-.19,7.03-.86,10-2.69,2.75-1.66,5.74-4.17,9.16-3.23,1.55.53,2.83,1.91,4.17,2.81,1.2.84,2.72,1.51,4.17,1.75,3.57.58,7.26.4,10.83.93,2.45.44,5.02.47,7.5.44,2.19-.03,4.53.15,6.66-.46,2.58-.81,4.88-2.57,7.5-3.26,3.4-.75,6.01,2.37,9.16,3.01,1.88.38,3.92.53,5.83.66,2.2.11,4.53-.03,6.66-.6,2.13-.63,4.44-1.4,6.66-.81,1.63.4,3.32,1.17,5,1.37,2.77.29,5.58-.57,8.33-.79,3.59-.34,7.25-.22,10.83.24"/><path class="b" d="M12.27,225.31c1.51-.24,2.94-1.16,4.17-2.01,6.28-4.56,6.59,1.39,15.83-1.17,1.33-.29,2.79-.81,4.17-.79,2.91.36,5.4,2.45,8.33,2.84,3,.54,6.13.39,9.16.51,3.31.16,6.69.39,10,.57,3.85.11,7.9.54,11.66-.45,2.15-.72,3.98-2.3,5.83-3.54,1.66-1.16,3.94-1.94,5.83-.87,5.84,4.42,6.33,3.7,13.33,4.12,2.21.03,4.48.51,6.66.8,1.62.18,3.38.08,5,.09,2.5-.02,5.3.34,7.5-1.12,2.76-1.71,5.58-6.3,9.16-5.59,1.62.54,2.95,1.98,4.17,3.11,2.33,2.53,5.86,3.32,9.16,3.59,2.23.13,4.55-.29,6.66-.98,1.83-.65,3.87-1.4,5.83-.94,1.68.38,3.32,1.33,5,1.74,2.74.58,5.59-.33,8.33-.48,3.87-.28,7.8-.22,11.66.21"/><path class="b" d="M12.27,222.74c2.23-.84,3.84-2.9,5.83-4.13,2.23-1.46,4.58-.12,6.66.89,1.81.76,3.88,1,5.83.99,1.64.01,3.38-.26,5-.43,1.73-.09,3.42.74,5,1.33,1.3.49,2.79.87,4.17,1.03,3.02.32,6.13.12,9.16.16,3.59.09,7.24.4,10.83.46,3.31.03,6.69.22,10,.17,2.13-.1,4.12-1.23,5.83-2.43,2.12-1.54,5-3.18,7.5-1.49,1.56.95,3.22,2.07,5,2.58,3.51.88,7.24.86,10.83,1.16,2.46.26,5.02.21,7.5.17,2.49-.03,5.29.45,7.5-.98,3.27-1.97,6.37-8.81,10.83-6.2,2.14,1.47,3.68,3.85,5.83,5.32,2.68,1.59,6.1,2.37,9.16,1.59,6.03-1.73,7.02-4.45,13.33-.55,1.75.97,3.91,1.01,5.83.63,5.21-1.02,10.58-1,15.83-.24"/><path class="b" d="M12.27,220.07c2.6-1.29,4.37-4.6,7.5-4.68,1.52.13,2.91,1.15,4.17,1.92,1.24.76,2.75,1.34,4.17,1.66,2.72.7,5.57.39,8.33.35,1.95.18,3.89,1.01,5.83,1.25,4.42.59,8.91-.05,13.33-.2,4.15.11,8.34.51,12.5.38,2.48-.09,5.03.28,7.5.26,1.77-.09,3.51-.91,5-1.81,3.1-1.98,5.59-3.41,9.16-1.47,6.78,3.63,11.75,3.44,19.16,3.23,7.47-.04,8.42,1.13,14.16-4.55,6.18-5.36,9.22,3.09,15,4.15,5.76,1.7,7.72-1.64,12.5-3.46,2.48-.81,4.76,1.01,6.66,2.36,3.61,2.9,7.65.78,11.66.35,3.61-.39,7.26.14,10.83.66"/><path class="b" d="M12.27,217.75c2.01-1.09,3.6-3.15,5.83-3.84,1.85-.45,3.55.79,5,1.78,1.23.86,2.72,1.58,4.17,1.95,2.97.84,6.12.63,9.16.57,1.92.11,3.91.57,5.83.59,2.75.06,5.58.05,8.33-.12,1.92-.16,3.91-.63,5.83-.68,2.48-.01,5.02.47,7.5.5,3.31.07,6.7-.08,10,.29,5.72.79,10.09-5.26,15.83-3.88,2.08.51,3.95,1.82,5.83,2.78,3.58,2.04,7.79.59,11.66.88,2.75.05,5.58.34,8.33.21,1.77-.13,3.53-.93,5-1.89,1.28-.82,2.67-1.9,4.17-2.28,3-.62,5.72,1.44,8.33,2.6,2.79,1.33,6.1,2.01,9.16,1.39,1.88-.5,3.51-1.89,5-3.08,1.83-1.5,4.44-2.81,6.66-1.33,3.79,2.55,5.6,5.65,10.83,4.35,1.89-.41,3.88-.99,5.83-1.03,3.06-.11,6.14.51,9.16.87"/><path class="b" d="M12.27,215.92c1.72-.73,3.25-2.09,5-2.74,2.44-.88,4.62.96,6.66,2.01,1.26.63,2.77,1.01,4.17,1.17,2.74.32,5.58.18,8.33.16,4.15.19,8.35.02,12.5.11,2.81.12,5.54-1.06,8.33-1.03,1.92.08,3.91.55,5.83.65,3.31.21,6.69.13,10,.36,4.74.37,8.91-2.43,13.33-3.66,6.78-2.5,7.18,2.78,12.5,3.68,2.21.02,4.44-.89,6.66-.73,3.85.24,7.83,1.2,11.66.45,1.72-.42,3.4-1.34,5-2.08,2.13-1.22,4.55-.54,6.66.36,1.85.72,3.87,1.35,5.83,1.67,3,.38,6.4.8,9.16-.69,1.77-1.02,3.28-2.68,5-3.77,2.24-1.62,4.59-1.32,6.66.45,5.09,4.48,6.61,5.02,13.33,3.65,3.59-.44,7.25.33,10.83.53"/><path class="b" d="M12.27,214.18c1.7-.38,3.32-1.36,5-1.8,2.65-.71,5.02,1.1,7.5,1.7,2.16.49,4.47.35,6.66.33,2.47-.03,5.03.09,7.5-.02,1.62-.08,3.37-.26,5-.22,1.63.05,3.37.26,5,.27,2.24.12,4.48-.51,6.66-.86,2.49-.3,5.02.46,7.5.55,3.31.18,6.69.2,10,.31,4.61-.06,8.88-2.29,13.33-3.23,1.59-.42,3.34-1.11,5-.66,1.87.55,3.38,2.08,5,3.08,2.32,1.61,5.03.21,7.5-.16,1.63-.22,3.39.1,5,.38,1.89.28,3.93.4,5.83.57,1.7.1,3.48-.41,5-1.15,1.57-.7,3.23-1.81,5-1.79,2.3.24,4.43,1.56,6.66,2.09,2.69.72,5.56.89,8.33.86,5.28.39,7.87-4.29,12.5-5.46,3.32-.47,5.66,2.64,8.33,4.06,2.7,1.81,6.09,1.41,9.16,1.22,3.31-.1,6.69.24,10,.18"/><path class="b" d="M12.27,212.22c1.92-.07,3.91-.57,5.83-.59,1.64-.01,3.37.38,5,.55,2.77.26,5.57-.44,8.33-.49,1.91-.08,3.92.27,5.83.21,3.32-.26,6.7-.45,10,.13,1.62.17,3.37.25,5,.17,2.47-.23,5.01-.62,7.5-.36,3.03.2,6.13.31,9.16.36,2.77.08,5.66.15,8.33-.71,2.98-.88,6.03-1.91,9.16-2.09,1.62-.13,3.39-.43,5-.06,2.06.48,3.86,1.87,5.83,2.57,1.89.68,3.96.08,5.83-.33,1.32-.27,2.83-.35,4.17-.22,2.75.27,5.58.66,8.33.88,2.04.03,4.02-.92,5.83-1.76,2.12-1.13,4.43-1.07,6.66-.32,4.91,1.35,11.8,3.21,16.66,1.26,4.19-1.91,7.8-6.11,12.5-2.82,2.07,1.3,4.21,2.88,6.66,3.32,2.16.39,4.48.3,6.66.31,3.03.02,6.14.02,9.16-.3"/><path class="b" d="M12.27,209.98c3.31.05,6.71.2,10-.24,1.94-.29,3.9-.98,5.83-1.31,1.9-.34,3.94-.3,5.83.08,3.25.85,6.69.21,10,.64,3.3.4,6.67.78,10,.89,3.03-.01,6.13-.21,9.16-.11,3.86.04,7.83.37,11.66-.21,2.84-.53,5.48-2.03,8.33-2.5,2.21-.37,4.49.28,6.66.62,3.08.51,6.05,1.83,9.16,2.16,2.21.16,4.47-.41,6.66-.54,2.75-.13,5.6.11,8.33.45,3.18.59,6.17-.92,9.16-1.7,3.29-.65,6.74-.09,10,.49,1.9.41,3.88,1.06,5.83,1.2,5.06.89,8.13-2,12.5-3.73,3.99-1.45,7.15,2.47,10.83,3.28,2.42.58,5.03.52,7.5.54,3.33.04,6.71-.18,10-.74"/><path class="b" d="M12.27,207.46c3.39-.07,6.77-.87,10-1.86,2.16-.64,4.37-1.63,6.66-1.53,3.19,0,6.01,1.96,9.16,2.13,4.41.56,8.89.93,13.33,1.11,3.57.46,7.23.61,10.83.5,4.14-.04,8.39.27,12.5-.36,2.04-.4,3.97-1.49,5.83-2.36,1.8-.88,4-1.16,5.83-.22,4.57,2.45,9.9,2.87,15,2.97,3.87-.15,7.8-.44,11.66-.09,2.81.35,5.63-.32,8.33-1,2.72-.52,5.57-.8,8.33-.89,2.26-.07,4.56.49,6.66,1.3,1.85.54,3.91.82,5.83.59,4.06-.39,7.5-3.98,11.66-3.39,2.6.62,4.82,2.52,7.5,2.96,2.99.57,6.14.38,9.16.29,3.05.03,6.13-.46,9.16-.74"/><path class="b" d="M12.27,204.75c3.83-.78,7-3.49,10.83-4.29,5.89-2.06,8.3,1.16,13.33,3.07,4.34,1.11,8.85,1.62,13.33,1.38,3.05-.09,6.13.43,9.16.65,4.14.17,8.35.08,12.5.02,4.57.09,6.31-1.43,10-3.58,4.63-2.29,5.9,3.06,11.66,3.34,7.47.37,15.02.38,22.49.2,1.93-.2,3.92-.75,5.83-1.05,3.02-.31,6.12-.77,9.16-.78,2.6-.04,5,1.27,7.5,1.74,2.48.43,5.12.08,7.5-.72,2.19-.64,4.38-1.77,6.66-2.02,2.97-.19,5.47,1.98,8.33,2.39,3.56.63,7.26.19,10.83-.11,2.75.03,5.58-.47,8.33-.17"/><path class="b" d="M12.27,201.8c3-1.14,5.3-3.74,8.33-4.82,7.79-2.34,8.87.95,15,4.22,2.64.97,5.53,1.51,8.33,1.79,3.58.3,7.24.01,10.83.15,3.87.25,7.79.37,11.66.32,2.75-.04,5.6.14,8.33-.24,1.82-.31,3.51-1.4,5-2.45,1.41-.99,3.23-2.12,5-1.45,1.5.66,2.73,2.08,4.17,2.85,3.56,1.86,7.81.98,11.66,1.22,3.03.03,6.13.05,9.16.04,3.08.08,6.22-.2,9.16-1.17,4.57-1.25,9.57-1.18,14.16-.08,1.61.42,3.33,1.03,5,1.18,3.04.27,6.18-.14,9.16-.74,2.19-.41,4.4-1.34,6.66-1.25,1.67.07,3.39.67,5,1.06,1.59.35,3.37.54,5,.47,2.49-.08,5.03-.61,7.5-.91,2.76-.05,5.66-.02,8.33.76"/><path class="b" d="M12.27,198.6c4.58-2.97,6.24-6.85,12.5-6.17,4.2.08,7.15,4.69,10.83,6.36,2.11.85,4.45,1.34,6.66,1.85,4.37.84,8.9.55,13.33.52,5.26.05,10.57.08,15.83.08,6.93.27,7.95-4.47,12.5-4.53,1.63.25,2.85,1.71,4.17,2.59,3.65,2.49,8.33,1.65,12.5,1.86,4.42,0,8.92.12,13.33-.29,2.28-.33,4.48-1.37,6.66-2.05,7.37-2.24,11.63,3.37,19.99,2.36,2.47-.14,5.03-.24,7.5-.46,1.9-.2,3.91-.55,5.83-.61,2.75-.1,5.58.42,8.33.22,2.5-.25,5-1.11,7.5-1.38,3.41-.32,6.78.96,10,1.92"/><path class="b" d="M12.27,195.35c5.18-4.51,6.28-8.54,14.16-6.12,3.39,1.82,5.7,5.29,9.16,7.01,1.56.69,3.38,1,5,1.51,1.6.47,3.34.96,5,1.17,1.9.24,3.92.09,5.83.11,3.87,0,7.8.13,11.66-.09,4.7-.48,9.83,1.2,14.16-1.28,1.63-.87,3.23-2.13,5-2.73,1.84-.65,3.62.45,5,1.57,1.46.98,3.27,1.64,5,1.92,7.17.84,14.49.65,21.66-.13,3.11-.54,6.03-2.07,9.16-2.5,4.18-.68,7.64,2.65,11.66,3.11,2.18.32,4.48.04,6.66-.12,2.47-.17,5.03-.08,7.5-.13,4.15-.06,8.39.19,12.5-.48,2.58-.5,4.82-2.37,7.5-2.46,1.71-.1,3.45.63,5,1.27,1.88.7,3.85,1.57,5.83,1.95"/><path class="b" d="M12.27,192.31c3.01-2.9,5.89-8.15,10.83-6.67,1.4.3,3.02.46,4.17,1.41,3.45,2.65,6.23,6.83,10.83,7.49,3.1.46,6.05,1.86,9.16,2.24,3.03.11,6.13-.01,9.16.06,1.34-.01,2.83.03,4.17-.05,1.35-.11,2.82-.45,4.17-.56,3.6-.31,7.27,1.31,10.83.19,3.28-.8,6.49-3.88,10-2.43,1.76,1.04,3.8,1.71,5.83,1.95,4.67.65,9.45.94,14.16.76,2.77-.18,5.54-.94,8.33-1,2.48-.29,5.02-.78,7.5-1.11,2.18-.39,4.52-.74,6.66.01,2.19.68,4.38,1.74,6.66,2.05,3.04.53,6.13-.36,9.16-.46,3.6-.12,7.23.53,10.83.55,2.2,0,4.54-.03,6.66-.63,5.17-2.19,5.48-5.91,11.66-1.65,2.01,1.17,4.33,2.12,6.66,2.35"/><path class="b" d="M12.27,189.96c5.63-5.85,5.83-7.43,14.16-4.79,3.69,2.19,6.36,6.4,10.83,7.15,1.62.25,3.39.23,5,.58,1.94.41,3.87,1.26,5.83,1.58,3.85.36,7.8.15,11.66.14,2.24-.14,4.41-1.22,6.66-1.22,2.53-.02,4.98,1.16,7.5,1.25,4.22.36,8.33-2.75,12.5-1.18,2.39.77,5.03.59,7.5.8,3.58.26,7.24.45,10.83.34,2.27.03,4.48-.84,6.66-1.28,1.62-.11,3.38-.04,5-.03,1.9.04,3.93.16,5.83.03,1.9-.21,3.91-.64,5.83-.44,3.89.4,7.7,2.3,11.66,1.61,2.72-.58,5.54-1.15,8.33-.76,4.09.79,8.38,1.31,12.5.42,2.04-.48,3.51-2.28,5-3.64,4.94-4.19,6.26,3.71,14.16,4.1"/><path class="b" d="M12.27,188.43c6.15-5.57,6.39-4.95,14.16-3.33,3.2,1.48,5.73,4.36,9.16,5.39,2.15.68,4.47.25,6.66.26,1.96.01,3.94.61,5.83,1.06,2.15.52,4.47.5,6.66.54,1.91,0,3.93.2,5.83.03,2.76-.38,5.48-1.75,8.33-1.35,3.3.53,6.6,1.72,10,1.38,1.62-.09,3.37-.33,5-.33,2.19.1,4.46.43,6.66.34,4.98-.07,10.02.18,15-.07,1.71-.14,3.4-.89,5-1.45,1.02-.33,2.29-.24,3.33-.14,2.75.23,5.56.82,8.33.74,1.92-.09,3.91-.59,5.83-.69,1.93-.13,3.96.22,5.83.69,1.61.35,3.35.86,5,.95,1.95.04,3.93-.63,5.83-.93,1.9-.3,3.96-.23,5.83.2,3.27.63,6.8.75,10-.29,1.69-.62,3.03-2.16,4.17-3.49,5.8-6.68,6.63,3.16,15,4.34"/><path class="b" d="M12.27,186.61c5.46-3.24,7.19-3.3,13.33-2.66,2.75.52,5.03,2.45,7.5,3.66,2.01,1.1,4.38,1.64,6.66,1.36,2.18-.22,4.46-.63,6.66-.43,2.76.32,5.56.86,8.33,1.1,1.91.21,3.91.61,5.83.62,1.94-.05,3.92-.61,5.83-.91,4.45-.8,8.88.83,13.33.86,3.32.16,6.69-.06,10-.19,3.31.06,6.69.19,10,.18,2.47,0,5.09.29,7.5-.43,1.35-.39,2.77-1.11,4.17-1.32,1.05-.05,2.3.18,3.33.33,2.72.44,5.57.8,8.33.53,2.76-.3,5.52-1.38,8.33-1.15,3.14.19,6.04,1.88,9.16,2.09,2.49.07,5.01-.68,7.5-.77,3.88-.02,7.9.55,11.66-.72,4.37-.68,6.9-8.8,11.66-4.86,2.38,2.38,5.07,4.67,8.33,5.71"/><path class="b" d="M12.27,184.79c9.96-1.82,11.95-4.21,21.66.88,2.56,1.28,5.56,1.34,8.33.89,2.46-.36,4.99-1.11,7.5-.89,3.43.19,6.65,1.69,10,2.27,3.03.35,6.13-.35,9.16-.46,3.04-.23,6.13.09,9.16.26,2.19.11,4.48.21,6.66.06,1.91-.2,3.89-.8,5.83-.64,4.92.3,10.07,1.21,15,.72,1.95-.28,3.87-1.19,5.83-1.36,1.35.03,2.83.36,4.17.48,3.9.44,7.88-.19,11.66-1.13,4.56-1.21,8.91,1.32,13.33,2.02,2.47.37,5.04-.06,7.5-.36,4.79-.54,9.64-1.41,14.16-3.07,2.85-1.37,5.77-4.67,9.16-3.01,2.68,1.89,5.28,4.1,8.33,5.41"/><path class="b" d="M12.27,183.18c3.69.76,7.32-.5,10.83-1.48,2.44-.39,5.08-.05,7.5.4,1.98.41,3.88,1.4,5.83,1.89,2.72.6,5.63.63,8.33-.06,1.9-.45,3.85-1.33,5.83-1.26,3.27.16,6,2.41,9.16,3,3.01.41,6.14-.02,9.16-.02,3.87-.21,7.79-.17,11.66-.08,1.62.01,3.39.02,5-.22,1.61-.36,3.34-.82,5-.77,3.61.18,7.22.97,10.83,1.19,3.09.4,6.14-.61,9.16-1.03,1.63-.15,3.37.29,5,.28,1.94.06,3.98-.28,5.83-.83,5.02-1.43,7.58-1.4,12.5.39,4.04,1.01,8.34,1.58,12.5,1.04,4.52-.3,8.23-3.27,12.5-4.39,1.6-.35,3.39-.19,5-.42,2.19-.24,4.45-.89,6.66-.8,1.16.07,2.36.78,3.33,1.36,1.9,1.06,3.87,2.29,5.83,3.22"/><path class="b" d="M12.27,181.79c3.55,1.26,7.32.42,10.83-.51,1.96-.29,4.54-.16,6.66-.4,1.95-.13,3.96.22,5.83.72,2.17.37,4.46.72,6.66.6,2.9-.04,5.49-1.78,8.33-2.04,2.11,0,4.02,1.26,5.83,2.18,3.29,1.93,7.21,1.17,10.83,1.23,5.26-.18,10.56-.29,15.83-.14,2.52.1,5-.81,7.5-.9,4.17-.05,8.33,1.03,12.5,1.13,2.22.02,4.48-.57,6.66-.86,1.62-.26,3.37,0,5,.03,2.6.1,5.15-.81,7.5-1.83,2.44-.91,5.2-.46,7.5.65,2.56,1.32,5.44,2.02,8.33,1.94,2.47.07,5.05.17,7.5-.23,2.41-.31,4.77-1.31,6.66-2.84,2.04-1.51,4.06-3.53,6.66-3.95,2.96-.28,5.39,2.1,8.33,2.41,1.32.22,2.84.21,4.17.4,2.92.66,5.56,2.36,8.33,3.43"/><path class="b" d="M12.27,180.3c3.48,1.18,7.26.72,10.83.33,2.78-.05,5.58-.14,8.33-.59,3.58-.39,7.25.16,10.83-.17,1.98-.18,3.98-.86,5.83-1.56,4.24-2.04,6.99,2.22,10.83,3.03,2.74.31,5.57-.35,8.33-.19,2.75.02,5.58-.12,8.33-.08,2.47.07,5.02.31,7.5.32,2.77.13,5.57-.5,8.33-.63,2.48-.12,5.03.15,7.5.33,1.9.17,3.92.49,5.83.33,1.93-.14,3.92-.68,5.83-.97,1.89-.27,3.93,0,5.83-.29,1.69-.21,3.43-.85,5-1.48,2.13-.96,4.64-.63,6.66.42,1.58.78,3.26,1.75,5,2.11,1.32.27,2.83.25,4.17.25,3.06.03,6.24-.06,9.16-1.06,5.87-1.2,9.73-10.65,15-7.27,2.12,1.57,4.07,3.71,6.66,4.5,1.58.51,3.41.63,5,1.11,2.22.61,4.45,1.56,6.66,2.21"/><path class="b" d="M12.27,178.41c3.46,1.16,7.25.66,10.83.65,2.75.03,5.59.16,8.33-.23,3.86-.58,7.79-1.08,11.66-1.58,1.65-.27,3.39-.76,5-1.23,1.7-.63,3.45-.67,5,.36,7.4,5.53,6.55,1.16,14.16,1.93,6.9.93,13.88.99,20.83.94,2.75-.09,5.57-.47,8.33-.45,3.32-.09,6.68.74,10,.34,1.94-.22,3.91-.92,5.83-1.23,2.49-.28,5.08-.49,7.5-1.2,2.45-.82,5.12-1.11,7.5.11,2.59,1.32,5.34,2.68,8.33,2.44,3.06,0,6.27.03,9.16-1.12,1.66-.66,3.51-1.35,5-2.36,2.36-1.65,4.23-4.09,6.66-5.64,6.04-3.33,6.44,6.4,15,7.02,2.78.41,5.59,1.14,8.33,1.75"/><path class="b" d="M12.27,176.21c2.07.89,4.46.8,6.66.83,2.47-.01,5.03.03,7.5.01,2.47-.07,5.04.14,7.5-.14,3.62-.54,7.2-1.59,10.83-2.1,1.91-.27,3.9-.83,5.83-.96,1.16.06,2.38.68,3.33,1.3,1.24.8,2.64,1.81,4.17,1.91,1.78.02,3.33-1.28,5-1.73,3.7-1.21,7.18,1.41,10.83,1.6,3.33.42,6.68-.29,10-.45,3.04.03,6.11.87,9.16.51,2.18-.18,4.47-.41,6.66-.3,2.19.08,4.47.47,6.66.35,1.99-.08,3.95-.83,5.83-1.41,1.31-.35,2.82-.57,4.17-.7,3.02-.19,6.17-.71,9.16-.09,2.23.53,4.39,1.69,6.66,2.05,1.61.24,3.38.15,5,.13,1.64,0,3.42-.11,5-.57,2.52-.86,5.08-1.97,7.5-3.07,2.03-1.15,3.84-2.86,5.83-4.07,6.79-3.79,6.72,6.44,15.83,6.63,2.75.26,5.59.49,8.33.89"/><path class="b" d="M12.27,173.72c2.26,1.26,5,1.08,7.5,1.14,3.05.13,6.13-.19,9.16-.47,2.48-.06,5.01.73,7.5.39,2.21-.29,4.46-.92,6.66-1.26,1.9-.31,3.92-.45,5.83-.64,2.35-.51,4.6.49,6.66,1.49,4.59,2.15,6.77-3.86,11.66-2.1,2.44.96,4.76,2.68,7.5,2.59,3.12.15,6.07-1.42,9.16-1.51,2.56-.09,4.99,1.13,7.5,1.42,2.48.29,5.02-.28,7.5-.32,2.76-.14,5.57.43,8.33.4,2.01-.02,3.94-.98,5.83-1.53,1.31-.34,2.82-.43,4.17-.34,3.59.44,7.29.5,10.83,1.24,3.8.92,7.8.65,11.66.36,2.3-.28,4.5-1.33,6.66-2.07,1.02-.34,2.31-.53,3.33-.89,1.68-.58,3.37-1.51,5-2.2,7.32-3.01,7.13,5.2,15.83,5.08,3.03.15,6.14.12,9.16.3"/><path class="b" d="M12.27,171.04c1.9,1.4,4.39,1.58,6.66,1.61,1.91.02,3.94.06,5.83-.24,3.76-.95,5.33-1.58,9.16-.27,4.36,1.27,8.9-.31,13.33-.23,1.62-.02,3.38-.21,5-.01,1.9.22,3.9,1.06,5.83.63,1.53-.38,2.84-1.59,4.17-2.36,3.25-2.15,5.45-1.03,8.33.98,6.33,4.36,10.33-2.34,16.66-.08,5.81,2.46,7.51,1.33,13.33,1.15,2.76-.11,5.58.68,8.33.35,1.67-.23,3.32-1.08,5-1.27,2.5-.28,5.03.51,7.5.78,3.59.17,7.24.73,10.83.51,2.18-.28,4.47-.46,6.66-.6,1.66-.19,3.4-.72,5-1.2,2.96-.94,6.18-.71,9.16-1.55,2.47-.59,5.24-.72,7.5.62,1.31.77,2.72,1.77,4.17,2.27,1.29.42,2.82.52,4.17.53,3.59,0,7.24.03,10.83-.03"/><path class="b" d="M12.27,168.84c2.4,1.71,5.51,1.67,8.33,1.61,2.57.04,5.13-.56,7.5-1.53,2.79-1.15,5.66.08,8.33.95,2.69.75,5.57.59,8.33.56,3.31-.04,6.69-.06,10,.04,4.45.36,6.25-2.99,10-4.28,2.14-.64,4.18.74,5.83,1.95,1.45,1.08,3.17,2.07,5,2.28,3.49.5,6.51-2.39,10-1.94,1.68.26,3.36,1.01,5,1.43,1.59.43,3.36.59,5,.57,2.19-.03,4.48-.16,6.66-.12,2.19.04,4.49.28,6.66-.08,1.36-.21,2.8-.79,4.17-.97,1.93-.21,3.94.31,5.83.64,1.89.35,3.92.44,5.83.48,1.91.08,3.96.09,5.83-.34,1.35-.3,2.82-.84,4.17-1.18,1.6-.36,3.38-.3,5-.46,3.01-.46,6.14-.9,9.16-.27,2.74.37,5.6.43,8.33.88,2.22.33,4.41,1.29,6.66,1.39,2.2.04,4.47-.47,6.66-.55,3.03-.18,6.14.07,9.16-.17"/><path class="b" d="M12.27,167.01c2.53,1.37,5.54,1.33,8.33,1.21,2.85-.02,5.68-.64,8.33-1.68,2.73-1.05,5.68-.44,8.33.56,3.47,1.12,7.22,1.08,10.83,1.06,2.75-.09,5.62.16,8.33-.39,3.52-.62,5.63-4.33,9.16-4.86,2.96-.19,5.12,2.37,7.5,3.72,5.37,3.05,6.54,1.01,11.66.1,1.07-.07,2.3.28,3.33.51,1.6.37,3.36.64,5,.77,6.09.28,12.35.63,18.33-.81,2.2-.45,4.5.18,6.66.57,2.16.4,4.47.51,6.66.5,1.97.03,4.04-.4,5.83-1.23,1.85-.83,3.76-2,5.83-2.1,2.74,0,5.6-.12,8.33.24,2.56.41,4.99,1.63,7.5,2.27,2.42.61,5.01.82,7.5.81,3.1-.04,6.13-1.1,9.16-1.61,3.55-.62,7.24-.6,10.83-.58"/><path class="b" d="M12.27,165.26c3.2,1.13,6.68.81,10,.6,3.41-.02,6.68-1.2,10-1.79,2.85-.52,5.56.79,8.33,1.19,3.3.51,6.69.21,10,.02,10.83.52,9.74-6.57,15.83-6.13,2.21.49,4.01,2.19,5.83,3.45,2.07,1.29,4.27,2.78,6.66,3.36,2.23.44,4.44-.73,6.66-.7,4.95.82,10.01.33,15,.4,3.89-.08,7.78-.91,11.66-1.02,4.43.41,8.85,1.49,13.33,1.42,3.07-.03,5.59-2.14,8.33-3.22,2.1-.77,4.48-.45,6.66-.6,1.63-.08,3.43-.02,5,.5,1.42.46,2.87,1.3,4.17,2.04,2.49,1.54,5.56,1.48,8.33.89,1.65-.29,3.37-.92,5-1.3,1.9-.43,3.94-.74,5.83-1.19,3.51-.81,7.25-1.66,10.83-.84"/><path class="b" d="M12.27,163.48c3.29.68,6.68.28,10,.06,3.91.01,7.79-.77,11.66-1.15,1.65-.15,3.38.26,5,.52,1.62.22,3.37.28,5,.19,2.21-.1,4.47-.62,6.66-.86,2.61-.12,5.41-.49,7.5-2.2,2.48-1.7,4.05-5.71,7.5-5.41,2.6.55,4.53,2.75,6.66,4.18.99.72,2.32,1.33,3.33,2.02,1.29.91,2.68,2.03,4.17,2.61,1.84.74,3.92.28,5.83.24,4.17.35,8.37-.05,12.5-.57,3.64.05,7.19-1.26,10.83-1.24,2.49-.03,5.03.52,7.5.76,2.76.24,5.63.31,8.33,1.02,2.61.73,5.19-.47,7.5-1.58,1.53-.73,3.34-.95,5-1.12,3.87-.44,7.32-2.5,10.83.39,1.44,1.12,3.08,2.5,5,2.54,2.93-.13,5.65-1.7,8.33-2.74,1.84-.65,3.94-.58,5.83-.95,4.04-.89,8.49-3.08,12.5-.97"/><path class="b" d="M12.27,161.6c3.05.28,6.14-.25,9.16-.55,4.15-.14,8.35-.12,12.5-.3,3.61.05,7.25.73,10.83-.09,1.64-.31,3.36-.86,5-1.2,1.93-.32,4.04-.43,5.83-1.29,1.99-.95,3.62-2.73,5-4.41,1.35-1.77,3.41-3.89,5.83-2.8,3,1.38,5.25,4.13,8.33,5.39,2.3,1.43,4.09,3.83,6.66,4.81,2.38.81,5.03.41,7.5.49,1.62.02,3.38.05,5-.13,1.63-.18,3.36-.63,5-.77,2.56-.22,4.99-1.39,7.5-1.88,2.49-.54,5.05.22,7.5.63,2.17.34,4.48.17,6.66.22,4.44.22,5.84,3.19,10.83,1.34,1.85-.68,3.9-.95,5.83-1.28,1.71-.35,3.41-1.21,5-1.9,6.26-2.93,7.04,6.27,13.33,3.1,2.27-.99,4.38-2.56,6.66-3.52,1.57-.54,3.39-.58,5-.97,1.35-.32,2.82-.91,4.17-1.25,1.6-.22,3.4-.21,5,.07,1.14.27,2.38.95,3.33,1.62"/><path class="b" d="M12.27,159.47c3.93.16,7.77-1.04,11.66-1.2,5.54.33,11.09,1.35,16.66.93,2.81-.15,5.6-.93,8.33-1.57,2.24-.43,4.66-.68,6.66-1.85,5.39-3.12,6.77-10.04,14.16-5.67,1.86,1.13,4,2.01,5.83,3.17,2.22,1.7,4.08,4.12,6.66,5.3,2.07.96,4.46.65,6.66.79,1.62.11,3.38.18,5-.05,1.92-.3,3.92-.83,5.83-1.16,3.34-.82,6.41-3.3,10-2.74,1.36.22,2.81.79,4.17,1.02,3,.65,6.23-.36,9.16.66,1.36.57,2.76,1.49,4.17,1.97,2.14.74,4.5.27,6.66-.07,1.64-.22,3.45-.39,5-1.03,4.98-2.24,6.16-4.31,10.83.25,2.11,1.84,4.46,1.38,6.66-.05,2-1.12,3.87-2.69,5.83-3.86,1.5-.82,3.35-1.15,5-1.55,1.31-.31,2.8-.71,4.17-.66,3.03.55,5.86,2.18,8.33,3.96"/><path class="b" d="M12.27,157.13c2.19.03,4.49-.03,6.66-.33,1.91-.25,3.9-.81,5.83-.73,2.22.18,4.45.92,6.66,1.1,3.3.18,6.7.18,10,0,2.21-.2,4.47-.67,6.66-.96,2.25-.25,4.64-.55,6.66-1.65,2.47-1.26,4.36-3.53,6.66-5.02,3.6-2.01,8.01-1.25,11.66.22,3.8,1.33,6.36,4.81,10,6.43,1.27.56,2.79.76,4.17.82,1.9.23,3.93.45,5.83.1,2.77-.63,5.69-1.15,8.33-2.21,2.62-1.15,5.33-2.99,8.33-2.47,1.92.42,3.83,1.37,5.83,1.47,2.18.21,4.51-.2,6.66.3,1.44.39,2.84,1.34,4.17,1.99,2.28,1.21,4.99,1.27,7.5.97,1.95-.16,4.02-.44,5.83-1.21,1.85-.73,3.77-1.97,5.83-1.75,1.89.28,3.34,1.87,5,2.67,2.66,1.31,5.38-.69,7.5-2.18,1.68-1.15,3.25-2.72,5-3.76,2.23-1.21,5.05-1.55,7.5-.84,1.18.37,2.35,1.26,3.33,1.98,1.83,1.3,3.8,2.67,5.83,3.65"/><path class="b" d="M12.27,154.74c2.46.23,5.03.31,7.5.14,1.63-.1,3.36-.44,5-.41,1.64.09,3.36.49,5,.58,1.63.1,3.37-.12,5-.18,2.76-.06,5.58.45,8.33.03,3.87-.64,8.11.05,11.66-1.91,2.54-1.24,4.59-3.82,7.5-4.2,7.87-.84,10.53-.26,17.5,3.34,3.5,1.97,7.61,3.33,11.66,2.8,1.93-.36,3.9-1.06,5.83-1.45,2.3-.39,4.54-1.32,6.66-2.25,6.15-2.79,7.53.78,13.33.5,3.17-.2,5.55-.21,8.33,1.6,1.5.85,3.26,1.58,5,1.71,3.07.13,6.23-.44,9.16-1.32,8.01-2.96,7.89,1.77,13.33,1.26,2.51-.63,4.66-2.42,6.66-3.97,2.32-2.14,4.96-4.43,8.33-3.09,2.22.8,4.05,2.53,5.83,4.02,1.65,1.35,3.72,2.41,5.83,2.78"/><path class="b" d="M12.27,152.49c3.84.61,7.79.37,11.66.33,1.91-.01,3.93.15,5.83-.04,1.63-.15,3.36-.51,5-.49,1.64,0,3.37.4,5,.55,1.63.12,3.38-.12,5-.25,4.41-.23,7.77.27,11.66-2.38,4.61-3.23,5.61-2.29,10.83-1.95,2.84.13,5.66.74,8.33,1.66,3.09.53,6.17,1.39,9.16,2.31,4.33,1.17,5.92.5,10-.69,1.6-.38,3.39-.46,5-.83,2.2-.5,4.42-1.32,6.66-1.6,3.14-.54,6.05,1.39,9.16,1.17,4.61-.31,6.53-1.51,10.83,1.31,2.58,1.59,5.52,1.48,8.33.62,3.52-.81,7.22-2.13,10.83-1.14,2.47.56,4.88,2.21,7.5,1.7,2.82-.68,5.27-2.61,7.5-4.39,3.26-3.03,5.7-2.96,9.16-.17,3.17,2.62,5.56,4.82,10,4.66"/><path class="b" d="M12.27,150.48c2.19.31,4.47.15,6.66.07,1.91-.04,3.92.1,5.83.07,3.06.03,6.11-.81,9.16-.84,1.94.05,3.92.57,5.83.83,1.91.21,3.93-.13,5.83-.27,2.77-.17,5.71.03,8.33-1.08,1.99-.76,3.83-2.1,5.83-2.83,1.88-.63,3.96-.11,5.83.27,2.2.5,4.48,1.04,6.66,1.6,3.21,1.14,6.69.92,10,1.54,2.17.4,4.45.94,6.66.81,1.66-.15,3.36-.76,5-1.03,1.89-.33,3.93-.11,5.83-.32,2.19-.22,4.46-.66,6.66-.71,3.08-.17,6.08,1.31,9.16.77,3.02-.32,6.22-2.33,9.16-.72,2.02,1.1,4.27,2.44,6.66,1.93,3.3-.81,6.55-2.24,10-2.32,3.8-.26,7.17,2.02,10.83,2.42,2.73.03,5.25-1.5,7.5-2.89,2.23-1.64,4.67-3.42,7.5-1.93,4.96,2.71,6.05,5.27,12.5,4.81"/><path class="b" d="M12.27,148.48c2.21.09,4.47-.35,6.66-.52,1.62-.12,3.37,0,5-.03,2.77-.11,5.55-1,8.33-.97,2.81.07,5.56,1.1,8.33,1.45,2.48.24,5.03-.22,7.5-.37,5.08-.14,9.9-2.46,15-2.2,3.65.24,7.23,1.38,10.83,1.95,3.29.46,6.7.12,10,.55,3.06.46,6.13-.29,9.16-.57,1.91-.09,3.92.26,5.83.26,2.19-.02,4.47-.32,6.66-.37,2.77-.13,5.56.67,8.33.61,2.85.07,5.57-1.08,8.33-1.54,2.02-.21,3.93.94,5.83,1.42,3.86.96,7.8-.64,11.66-.93,2.47-.32,5.07-.14,7.5.39,2.99.74,6.18,1.34,9.16.23,1.72-.54,3.49-1.4,5-2.39,1.44-.95,3.21-1.9,5-1.55,5.92,1.84,5.36,5.06,13.33,4.57"/><path class="b" d="M12.27,146.13c1.92-.15,3.92-.59,5.83-.81,1.9-.22,3.93-.11,5.83-.25,2.49-.28,4.96-1.33,7.5-1.21,3.94.37,7.68,2.25,11.66,2.39,3.61.19,7.24-.52,10.83-.72,3.59-.1,7.24.04,10.83-.17,3.05-.02,6.13.51,9.16.75,2.75.18,5.58,0,8.33.11,3.05.25,6.13-.27,9.16-.46,2.76.02,5.57.58,8.33.47,2.47-.02,5.03-.27,7.5-.17,4.41.19,8.97.57,13.33-.28,3.85-.95,7.77.61,11.66.48,5.55.17,11.12-.63,16.66-.1,16.6,1.45,13.32-8.69,23.33-1.4,2.15,1.54,4.96,1.61,7.5,1.49"/><path class="b" d="M12.27,143.36c1.9-.32,3.9-.65,5.83-.68,1.91-.05,3.93.15,5.83-.02,2.51-.31,4.93-1.63,7.5-1.5,1.7.06,3.39.77,5,1.23,1.9.45,3.91.9,5.83,1.22,3.84.73,7.79.36,11.66.31,4.71.23,9.46.09,14.16-.09,4.43.13,8.9.3,13.33.23,3.04.18,6.13-.2,9.16-.33,1.63,0,3.37.26,5,.33,2.47.04,5.03.02,7.5.01,3.31-.13,6.7.2,10-.25,2.19-.13,4.47.35,6.66.26,3.3-.34,6.68-.29,10-.31,3.32-.19,6.69-.19,10,.15,3.59.21,7.24.15,10.83.14,3.03-.05,6.18.09,9.16-.54,2.67-.48,4.72-2.94,7.5-2.99,5.45.86,4.66,4.37,12.5,3.41"/><path class="b" d="M12.27,140.32c3.87-1.03,7.78.48,11.66.4,1.67-.08,3.38-.69,5-1.07,2.8-.82,5.6.22,8.33.79,3.3.48,6.69.75,10,1.16,3.85.46,7.79.27,11.66.23,3.59.04,7.24.06,10.83-.1,5.54.15,11.12-.02,16.66.16,4.15-.27,8.35.12,12.5-.09,3.59.09,7.24.15,10.83.04,1.63-.14,3.34-.75,5-.63,1.64.1,3.36.53,5,.65,3.03.07,6.15-.16,9.16-.42,1.93-.2,3.91-.78,5.83-1.04,1.92-.18,3.94.25,5.83.49,4.68.63,9.45.7,14.16.95,2.19,0,4.52.11,6.66-.4,1.4-.37,2.81-1.2,4.17-1.68,1.31-.46,2.9-.34,4.17.2,4,2.03,5.45,2.4,10,1.4"/><path class="b" d="M12.27,137.49c3.38-.82,6.69.74,10,1.22,2.48.43,5.03-.2,7.5-.4,2.78-.25,5.56.63,8.33.72,4.15.07,8.36-.17,12.5.39,4.14.31,8.35-.01,12.5.25,3.59.1,7.24-.21,10.83-.07,3.59.09,7.24-.56,10.83-.17,4.41.44,8.91.26,13.33.17,3.31.07,6.69.1,10,.09,2.8.09,5.52-1.51,8.33-.72,1.88.43,3.89.86,5.83.68,2.47-.23,5.05-.38,7.5-.82,2.48-.44,4.94-1.53,7.5-1.44,4.16.27,8.38.68,12.5,1.34,5.2,1.15,10.7,1.34,15.83-.18,1.94-.37,3.98.23,5.83.79,2.77.91,5.66-.19,8.33-.95"/><path class="b" d="M12.27,135.46c3.38-.31,6.66,1.09,10,1.42,2.46.3,5.03.08,7.5.19,2.47.11,5.02.39,7.5.38,3.62.1,7.24-.56,10.83-.78,3.87.05,7.79.59,11.66.64,5.26.29,10.57.19,15.83.05,3.59-.31,7.23-1.2,10.83-.39,3,.52,6.13.51,9.16.5,3.03,0,6.13.07,9.16-.06,1.91-.04,3.93.24,5.83,0,1.61-.28,3.34-.85,5-.67,1.64.15,3.36.66,5,.76,1.93.09,3.93-.37,5.83-.62,3.12-.35,6.16-1.36,9.16-2.19,2.98-.59,6.17-.42,9.16.01,2.51.43,5.02,1.3,7.5,1.88,2.97.69,6.12.87,9.16.75,1.62-.08,3.37-.38,5-.33,2.2.05,4.46.71,6.66.46,2.34-.29,4.45-1.66,6.66-2.36"/><path class="b" d="M12.27,133.9c2.5.11,5.01.79,7.5,1.01,5.25.42,10.58.54,15.83.06,2.48-.12,5.02.42,7.5.31,2.5-.07,5-.87,7.5-.88,2.48.02,5.02.46,7.5.62,3.03.21,6.13.23,9.16.27,2.75.01,5.59-.01,8.33-.27,1.94-.24,3.9-.95,5.83-1.27,3.36-.56,6.68.84,10,1.13,2.74.29,5.58.4,8.33.41,1.91-.02,3.92-.37,5.83-.32,1.63.04,3.37.36,5,.32,1.63-.06,3.36-.56,5-.53,1.92.01,3.91.55,5.83.54,1.95-.06,3.94-.66,5.83-1.08,3.14-.65,6.14-2.01,9.16-3.02,4.27-1.15,8.59.57,12.5,2.17,6.73,2.02,13.88,1.79,20.83,1.91,1.68-.05,3.49-.39,5-1.15,1.61-.8,3.24-1.93,5-2.4"/><path class="b" d="M12.27,132.37c3.02.38,6.11.81,9.16.73,2.47-.03,5.05.05,7.5-.34,3.46-.55,6.46-2.67,10-1.15,2.39.81,4.93,1.67,7.5,1.46,1.91-.14,3.91-.55,5.83-.48,6.09.45,12.22.63,18.33.46,1.92-.13,3.98-.26,5.83-.82,1.92-.61,3.82-1.67,5.83-1.95,2.54-.32,5.07.63,7.5,1.23,3.25.83,6.63,1.54,10,1.59,1.92-.02,3.91-.57,5.83-.58,1.92,0,3.91.54,5.83.58,2.76-.15,5.58-.52,8.33-.07,3.16.39,6.26-.82,9.16-1.9,2.56-.96,4.98-2.48,7.5-3.54,2.22-.77,4.68.19,6.66,1.21,1.9,1,3.78,2.33,5.83,3.01,1.58.45,3.37.57,5,.7,4.14.38,8.34.8,12.5.48,2.54-.19,5.2-.65,7.5-1.8,1.85-.96,3.67-2.49,5.83-2.58"/><path class="b" d="M12.27,130.6c3.31.41,6.69.28,10-.03,2.84-.11,5.8-.39,8.33-1.78,3.05-1.6,4.98-3.25,8.33-1.2,2.38,1.22,4.8,2.75,7.5,3.15,1.9.28,3.92.06,5.83.06,1.91,0,3.92.09,5.83.09,5.26-.16,10.68.44,15.83-.92,2.1-.41,3.97-1.71,5.83-2.68,2.87-1.72,6.25-.78,9.16.32,3.01,1.07,6.04,2.33,9.16,3.02,2.77.76,5.56-.44,8.33-.47,1.93.04,3.91.65,5.83.72,1.34.03,2.83-.14,4.17-.16,1.62-.02,3.37.19,5,.16,3.54-.24,6.91-1.85,10-3.5,1.89-.97,3.72-2.5,5.83-2.93,5.01.27,7.73,6.19,13.33,6.21,3.03.15,6.14.31,9.16.17,3.07-.33,6.22-.82,9.16-1.77,1.66-.53,3.47-1.12,5-1.96,1.73-1,3.77-2.27,5.83-1.56"/><path class="b" d="M12.27,128.6c3.36.34,6.71-.22,10-.86,3.14-.34,6.36-.83,9.16-2.39,2.72-1.41,4.66-2.23,7.5-.54,2.17,1.11,4.32,2.53,6.66,3.25,3.76,1.05,7.8.55,11.66.59,6.68-.38,14.08.54,19.99-3.22,1.81-1.21,3.63-2.82,5.83-3.23,4.36-.44,7.94,2.9,11.66,4.65,2.28,1.17,4.9,2.22,7.5,1.73,1.61-.28,3.35-.68,5-.52,1.63.15,3.36.59,5,.64,1.34.02,2.83-.15,4.17-.15,1.62-.01,3.37.2,5,.15,2.89-.17,5.72-1.28,8.33-2.49,2.47-1.02,4.82-3.05,7.5-3.39,3.32.54,5.37,3.84,8.33,5.17,1.51.74,3.35.78,5,.68,1.91-.1,3.94-.22,5.83-.49,1.99-.25,3.98-1,5.83-1.76,3.04-.97,6.12-2.07,9.16-3.02,2.7-.74,5.63-2.71,8.33-.94"/><path class="b" d="M12.27,126.47c1.63.04,3.39.07,5-.24,1.94-.38,3.91-1.12,5.83-1.58,3.03-.66,6.2-.99,9.16-1.92,2.7-.89,4.96-.96,7.5.44,2.38,1.21,4.82,2.65,7.5,3.06,4.4.52,8.91.19,13.33.07,5.05-.14,10.18-.75,15-2.3,2.42-1.09,4.36-3.16,6.66-4.45,4.74-2.67,8.78,2.57,12.5,4.84,1.93,1.3,4.29,2.37,6.66,2.05,1.62-.22,3.35-.7,5-.62,1.92.1,3.9.65,5.83.67,1.62,0,3.37-.21,5-.14,2.48.16,5.09.3,7.5-.46,2.6-.73,5.09-2.02,7.5-3.21,1.56-.67,3.24-1.78,5-1.69,2.66.65,4.38,3.25,6.66,4.59,3.4,2.1,7.48-.08,10.83-1.28,3.78-1.4,6.92-4.25,10.83-5.33,2.36-.89,4.99-1.24,7.5-.92,2.29,0,4.73.31,6.66,1.65"/><path class="b" d="M12.27,124.3c1.93.02,3.98-.1,5.83-.65,2.49-.74,4.94-1.91,7.5-2.44,1.89-.31,3.93-.19,5.83-.33,1.63-.1,3.36-.43,5-.42,2.74-.02,5.04,1.83,7.5,2.79,2.88,1.22,6.11,1.04,9.16,1.05,3.31-.02,6.7-.01,10-.32,2.49-.26,5.02-.84,7.5-1.22,1.91-.34,4.01-.28,5.83-.99,5.01-2.02,7.64-6.72,13.33-2.91,5.07,3.17,7.6,6.86,14.16,4.82,2.48-.56,5.03.26,7.5.5,2.46.26,5.03-.05,7.5.1,3.15.18,6.33-.66,9.16-2.01,2.67-1.21,5.42-2.59,8.33-3.13,1.98-.09,3.59,1.5,5,2.69,1.17,1.01,2.6,2.13,4.17,2.41,3.61.38,6.64-2.31,9.16-4.54,2.09-1.91,4.32-3.87,6.66-5.46,2.82-1.91,6.8-3.28,10-1.5,2.69,1.72,5.56,3.31,8.33,4.9"/><path class="b" d="M12.27,122.05c2.84.03,5.7-.57,8.33-1.61,2.66-.99,5.41-2.34,8.33-1.78,2.76.41,5.58.03,8.33-.14,2.12.02,3.98,1.41,5.83,2.27,1.53.74,3.3,1.2,5,1.27,4.7.07,9.47.15,14.16-.21,2.51-.25,4.99-1.13,7.5-1.42,2.46-.3,5.07.07,7.5-.55,2.53-.56,4.94-1.87,7.5-2.32,2.85-.27,5.77.76,8.33,1.94,9.61,5.41,8.2.35,16.66,1.95,4.37.72,8.97,1.05,13.33.11,2.87-.61,5.53-2.11,8.33-2.96,2.4-.55,5.13-1.69,7.5-.54,4.09,2.44,6.61,6.08,11.66,2.64,4.08-3.31,6.31-8.57,10.83-11.42,2.27-1.7,5.52-3.48,8.33-2.12,1.67.91,2.94,2.64,4.17,4.04,1.63,1.89,3.66,3.66,5.83,4.9"/><path class="b" d="M12.27,119.78c3.12.01,6.24-.73,9.16-1.79,1.34-.46,2.81-1.04,4.17-1.45,1.33-.28,2.83-.12,4.17-.02,1.63.13,3.39.05,5-.24,1.63-.29,3.46-.64,5,.18,1.66.8,3.28,1.97,5,2.63,2.36.93,5.01.79,7.5.8,3.03-.02,6.14,0,9.16-.26,2.81-.21,5.52-1.37,8.33-1.58,3.03-.12,6.14.25,9.16-.07,1.91-.14,3.92-.42,5.83-.51,1.34-.05,2.83.11,4.17.03,3.15-.28,6.3.38,9.16,1.68,3.62,1.74,6.4-.38,10-.46,2.22-.04,4.49.42,6.66.79,2.76.34,5.65.17,8.33-.57,2.78-.65,5.49-1.87,8.33-2.23,1.04-.14,2.29-.23,3.33-.33,1.33-.2,2.85-.36,4.17.03,1.76.59,3.35,1.86,5,2.68,4.16,2.13,7.59-.18,10-3.66,2.08-2.73,3.89-5.97,6.66-8.08,2.33-1.93,5.97-5.46,9.16-3.89,1.8,1.06,3,3.14,4.17,4.81,1.58,2.33,3.5,4.7,5.83,6.33"/><path class="b" d="M12.27,117.59c4.53.04,8.98-1.15,13.33-2.27,1.89-.38,3.94-.44,5.83-.86,3.96-.91,6.18-2.6,10-.02,2.05,1.25,4.25,2.58,6.66,2.94,3.84.47,7.81.21,11.66,0,4.16-.34,8.3-1.51,12.5-1.06,5.26.13,10.57.5,15.83.46,2.21-.18,4.44-.88,6.66-.89,2.03-.04,3.95.94,5.83,1.56,1.9.58,3.97.05,5.83-.45,1.59-.42,3.36-.65,5-.73,3.03.27,6.11,1.11,9.16.51,3.36-.48,6.6-1.91,10-2.14,1.33-.08,2.83.03,4.17.03,1.62-.06,3.42-.28,5,.24,5.59,2.38,9.34,5.21,14.16-.62,2.34-2.87,4.48-6.13,7.5-8.36,1.97-1.74,5.6-5.19,8.33-4.18,1.88.85,3.05,2.93,4.17,4.56,1.65,2.52,3.5,5.19,5.83,7.13"/><path class="b" d="M12.27,115.45c3.04.03,6.14-.25,9.16-.55,2.49-.24,5.07-.48,7.5-1.11,3.36-.71,6.4-3.75,10-2.66,2.02.53,3.95,1.61,5.83,2.47,4.12,2.09,8.85,1.87,13.33,1.58,4.97-.54,10.01-.52,15-.25,4.99-.07,10.01.33,15,.3,2.24-.09,4.49-.77,6.66-1.23,2.29-.58,4.54.38,6.66,1.09,1.58.47,3.38.5,5,.24,1.92-.26,3.91-.85,5.83-1.06,2.19-.05,4.47.38,6.66.25,3.4-.08,6.68-1.29,10-1.88,1.91-.26,3.93.13,5.83.34,1.62.13,3.39-.03,5,.25,4.3.88,9.28,4.05,13.33.88,1.8-1.39,3.37-3.31,5-4.89,1.19-1.21,2.86-2.16,4.17-3.23.96-.8,2.28-1.54,3.33-2.19,1.19-.74,2.72-1.49,4.17-1.19,1.8.47,3.06,2.23,4.17,3.61,1.71,2.21,3.58,4.58,5.83,6.28"/><path class="b" d="M12.27,113.3c3.03.03,6.13-.07,9.16-.15,2.48-.07,5.07.03,7.5-.55,4.7-1.17,5.54-3.63,10.83-2.37,3.98.48,7.68,2.45,11.66,2.86,3.31.22,6.69-.06,10-.2,2.19,0,4.47.17,6.66.23,4.43.17,8.9.01,13.33-.05,2.75-.04,5.59.24,8.33-.04,2.83-.18,5.49-1.73,8.33-1.68,2.24.31,4.44,1.22,6.66,1.61,2.74.6,5.59.27,8.33-.1,1.9-.13,3.93-.06,5.83-.16,1.92-.11,3.95-.32,5.83-.7,1.88-.46,3.87-1.1,5.83-.98,1.93.11,3.9.75,5.83.81,2.19.03,4.49-.06,6.66.29,1.63.21,3.38.54,5,.83,1.91.46,4.07.57,5.83-.44,1.72-.92,3.33-2.31,5-3.31,1.31-.72,2.86-1.4,4.17-2.12,2.37-.89,4.87-2.62,7.5-1.93,1.58.5,2.89,1.87,4.17,2.88,1.51,1.25,3.25,2.5,5,3.4"/><path class="b" d="M12.27,111.11c5.54-.08,11.13.16,16.66-.14,2.27-.18,4.45-1.15,6.66-1.56,1.9-.14,3.92.24,5.83.15,1.63.01,3.39.15,5,.47,1.63.31,3.34.85,5,.95,3.31.2,6.69-.02,10-.04,3.59.15,7.24.2,10.83.17,4.16.12,8.35-.34,12.5-.33,2.48.1,5.09.14,7.5-.59,1.67-.48,3.33-1.36,5-1.85,4.26-.7,8.46,1.22,12.5,2.33,1.86.54,3.92.46,5.83.43,2.75-.03,5.59-.14,8.33-.4,1.92-.22,3.89-.83,5.83-.86,2.21-.03,4.46.69,6.66.74,3.04.06,6.12-.57,9.16-.61,2.55-.19,4.97,1.17,7.5,1.13,2.01-.1,3.95-1.08,5.83-1.7,2.45-.71,5.02-1.33,7.5-1.95,1.87-.52,4-.76,5.83,0,2.37,1.11,4.96,1.97,7.5,2.6"/><path class="b" d="M12.27,108.91c5.82-.02,11.68.04,17.49-.02,1.92-.04,3.92-.36,5.83-.5,2.19-.02,4.48.05,6.66-.12,3.06-.28,6.13.31,9.16.54,3.03.11,6.13-.03,9.16-.08,7.49.25,15.02.22,22.49-.38,3.36.01,6.97.43,10-1.39,1.66-.88,3.22-2.26,5-2.93,2.76-.61,5.79-.26,8.33.98,1.97.89,3.8,2.33,5.83,3.09,2.13.62,4.47.63,6.66.74,3.6.23,7.24-.19,10.83-.36,3.03.09,6.13.56,9.16.28,3.63-.03,7.23-2.29,10.83-1.12,1.58.55,3.31,1.19,5,1.24,4.83-.09,10.21-1.18,15-1.63,1.35-.07,2.85.27,4.17.54,1.89.32,3.92.49,5.83.67"/><path class="b" d="M12.27,106.66c8.6.12,17.23,0,25.83-.02,4.71-.07,9.46-.18,14.16-.04,2.75-.02,5.58-.24,8.33-.24,2.47.08,5.03.24,7.5.08,1.63-.09,3.37-.35,5-.46,2.47.04,5.03-.16,7.5-.18,2.48-.03,5.03.48,7.5.3,4.29-.25,6.62-3.84,10-5.84,3.67-1.25,7.74-.03,10.83,2.12,1.06.68,2.22,1.65,3.33,2.23,1.8.83,3.9,1.06,5.83,1.36,3.84.64,7.78.81,11.66.74,3.59-.05,7.25.14,10.83-.11,1.94-.21,3.92-.85,5.83-1.23,2.22-.53,4.52.23,6.66.76,1.59.37,3.36.55,5,.58,4.16.12,8.35-.27,12.5-.53,3.03.05,6.13.34,9.16.4"/><path class="b" d="M12.27,104.12c3.56.56,7.24.32,10.83.38,7.49.06,15.01-.19,22.49.01,2.19-.02,4.49-.04,6.66-.29,3.02-.41,6.1-1.09,9.16-.77,1.9.21,3.93.34,5.83.09,1.66-.19,3.38-.74,5-1.16,2.43-.43,5.07-.1,7.5.25,4.13.95,8.7,2.46,12.5-.28,1.78-1.2,3.3-2.99,5-4.3,3.39-2.34,9.22.05,12.5,1.79,1.49.99,3.19,1.94,5,2.17,2.21.36,4.49.9,6.66,1.44,5.73,1.26,11.67.81,17.5,1.03,3.33-.13,6.66-.99,10-1.04,4.44.13,8.89.87,13.33.95,5.82.2,11.68-.04,17.49.1"/><path class="b" d="M12.27,100.88c2.84,1.37,6.07,1.5,9.16,1.43,3.31-.04,6.69-.18,10-.36,3.03-.28,6.12-.7,9.16-.47,2.49.12,5,.89,7.5.83,4.25.19,7.47-3.42,11.66-3.18,3.32.39,6.72,1.4,10,.16,1.58-.5,3.29-1.33,5-1.06,3.29.02,6.19,1.74,9.16,2.9,3.43,1.31,7.33.26,10-2.16,1.54-1.22,3.02-2.99,5-3.47,2.59-.27,5.05,1.16,7.5,1.8,1.04.32,2.3.67,3.33,1.01,1.03.36,2.23.9,3.33,1,1.91.14,3.96.06,5.83.56,1.91.5,3.87,1.25,5.83,1.51,2.73.41,5.58.47,8.33.68,1.62.11,3.37.31,5,.26,2.47-.14,5.02-.49,7.5-.42,3.59.04,7.24-.37,10.83-.34,7.76.32,15.56.99,23.33.63"/><path class="b" d="M12.27,96.76c4.11,3.61,6.44,3.76,11.66,2.98,3.29-.63,6.75-.61,10-1.49,2.41-.68,5.06-.75,7.5-.17,1.68.44,3.33,1.37,5,1.83,5.74,1.53,7.66-5.34,12.5-6.19,3.16-.08,6,2.04,9.16,1.93,1.96-.01,3.88-.94,5.83-.96,2.29.13,4.68.54,6.66,1.76,3.95,2.5,7.21,3.87,11.66,1.48,1.99-1.04,3.73-2.77,5.83-3.59,2.05-.65,4.03.81,5.83,1.59,1.8.86,3.86,1.39,5.83,1.64,2.19.54,4.48.12,6.66-.21,1.66-.18,3.43.17,5,.7,2.91,1.09,6.11,1.1,9.16,1.4,1.91.17,3.91.57,5.83.66,1.34.03,2.83-.19,4.17-.3,2.19-.19,4.48.11,6.66.16,2.76.04,5.59-.28,8.33-.53,2.19-.26,4.48.02,6.66.1,1.91-.03,3.92-.26,5.83-.18,3.9.25,7.74.78,11.66.22"/><path class="b" d="M12.27,92.21c3.29,3.71,5.29,7.08,10.83,5.15,1.07-.31,2.27-.85,3.33-1.18,1.9-.56,3.96-.92,5.83-1.55,2.69-1.02,5.56-1.92,8.33-.64,1.78.79,3.33,2.25,5,3.24,4.61,2.67,7.56-3.21,10-6.17,1.52-1.91,3.33-3.29,5.83-2.28,2.6.58,4.77,2.67,7.5,2.88,1.34.15,2.83-.05,4.17-.08,1.34.1,2.83.27,4.17.36,2.46.23,4.61,1.73,6.66,2.97,4.16,2.75,8.49.84,12.5-1.12,3.15-1.62,5.5.63,8.33,1.74,2.87,1.05,6.16,1.37,9.16.77,1.87-.45,3.89-.99,5.83-.67,1.36.21,2.82.7,4.17.98,1.32.23,2.83.28,4.17.33,2.79,0,5.58.69,8.33.98,1.91.08,3.92-.39,5.83-.36,3.59.21,7.24.41,10.83.15,3.03-.24,6.13-.16,9.16-.16,2.2-.15,4.45-.74,6.66-.75,1.63-.05,3.38.3,5,.47,1.9.15,3.93.04,5.83-.06"/><path class="b" d="M12.27,89.11c1.92,1.98,3.39,4.69,5.83,6.11,2.67,1.42,5.39-.66,7.5-2.19,1.76-1.24,3.83-2.19,5.83-2.97,2.32-.89,5.07-1.96,7.5-.87,2.33,1.14,3.93,3.46,5.83,5.14,4.39,4.18,7.95-2.28,10-5.61,2.22-3.39,3.72-6.36,8.33-4.93,1.74.78,3.31,2.15,5,3.02,1.51.82,3.31,1.29,5,1.57,1.87.56,3.93.24,5.83.54,2.18.42,4.03,1.95,5.83,3.16,1.46.99,3.25,1.7,5,1.92,3.06.49,6.12-.57,9.16-.57,2.24.21,4.44,1.15,6.66,1.44,3.58.51,7.27.35,10.83-.2,2.76-.43,5.58.28,8.33.4,1.91,0,3.92-.31,5.83-.29,1.65,0,3.4.41,5,.76,2.18.47,4.47-.16,6.66-.2,4.7.16,9.45.32,14.16.34,2.19,0,4.48.11,6.66-.09,2.21-.27,4.42-1.17,6.66-1.22,1.35-.04,2.84.3,4.17.51,1.89.26,3.92.34,5.83.43"/><path class="b" d="M12.27,87.92c2,1.54,3.63,3.74,5.83,5.02,2.47,1.47,4.93-.25,6.66-2.02,1.55-1.52,3.2-3.2,5-4.42,2.37-1.68,5.55-2.45,8.33-1.41,5.07,2.71,7.83,13.45,14.16,5.58,2.59-3.09,4.11-7.38,7.5-9.73,2.07-.81,3.79-1.24,5.83-.09,3.17,1.66,6.32,3.99,10,4.26,8.16-.63,8.27,7.54,18.33,7.96,7.77.18,15.56.56,23.33.2,2.47-.1,5.03.08,7.5,0,1.64-.09,3.38-.46,5-.65,3.1-.53,6.07,1.28,9.16.82,3.57-.55,7.24-.17,10.83-.08,3.31.26,6.69.09,10,.02,1.62.01,3.39.29,5-.03,1.62-.33,3.33-.92,5-.95,1.35-.03,2.84.3,4.17.53,1.89.31,3.92.5,5.83.57"/><path class="b" d="M12.27,87.77c3.18,1.18,6.41,4.57,10,3.18,4.94-2.45,7.61-10.6,14.16-8.87,4.22.79,5.95,5.66,9.16,8.05,2.09,1.8,4.73,1.33,6.66-.43,2.52-2.2,4.3-5.28,6.66-7.62.66-.63,1.68-1.24,2.5-1.63,1.45-.97,3.23-1.68,5-1.65,2.57.02,5.04,1.12,7.5,1.75,1.03.26,2.29.26,3.33.45,2.92.6,4.79,3.32,6.66,5.41,5.05,5.64,8.07,5.03,15,4.79,6.37-.11,12.78.21,19.16.13,2.47-.03,5.04.06,7.5-.18,1.63-.19,3.36-.66,5-.76,1.96-.14,3.92.65,5.83.9,1.91.14,3.92-.33,5.83-.31,3.59.05,7.24.37,10.83.33,1.92-.06,3.92-.5,5.83-.56,1.64-.06,3.36.5,5,.57,1.92-.02,3.9-.67,5.83-.58,3.31.24,6.69.94,10,.34"/><path class="b" d="M12.27,87.36c1.63.34,3.39.65,5,1.08,1.59.41,3.35.9,5,.56,5.41-1.36,7.85-9.4,14.16-8.05,4.62.53,6.87,5.57,10.83,7.48,2.13,1.17,4.73.68,6.66-.65,1.76-1.15,3.36-2.78,5-4.09,1.59-1.12,3.5-2.01,5-3.27,2.22-1.66,4.66-3.45,7.5-3.78,1.05-.12,2.29-.05,3.33.03,1.09.01,2.37.19,3.33.73,4.11,2.75,5.58,8.26,10,10.7,1.96,1.36,4.46,1.05,6.66.6,1.91-.26,3.91-.69,5.83-.88,2.77-.09,5.57.57,8.33.73,2.47.18,5.03.04,7.5.28,2.74.22,5.58.41,8.33.19,1.92-.17,3.89-.82,5.83-.83,1.95,0,3.9.82,5.83.92,1.91,0,3.92-.38,5.83-.24,3.3.2,6.69.37,10,.13,2.2-.16,4.45-.85,6.66-.86,1.66.01,3.36.72,5,.92,1.62.14,3.38-.17,5-.13,3.61.2,7.42.47,10.83-1.01"/><path class="b" d="M12.27,86.02c2.76.23,5.57.69,8.33.9,2.04.12,4.11-.61,5.83-1.67,1.91-1.16,3.76-2.67,5.83-3.54,2.6-.96,5.78-1.22,8.33.02,7.6,4.2,9.73,7.9,18.33,2.44,1.01-.56,2.33-.95,3.33-1.53,1.49-.88,2.92-2.18,4.17-3.36,1.77-1.66,3.6-3.56,5.83-4.6,2.11-.86,4.87-1.13,6.66.53,3.79,3.61,5.51,9.67,10.83,11.53,1.63.46,3.42-.04,5-.46,1.94-.43,3.92-1.12,5.83-1.61,2.74-.49,5.59.02,8.33.21,2.21.19,4.55.19,6.66.92,5.17,1.8,8.19,1.1,13.33.1,2.54-.34,4.99.94,7.5,1.03,1.34,0,2.83-.23,4.17-.19,1.91.06,3.92.29,5.83.15,3.62-.07,7.24-.76,10.83-1.12,2.54-.28,5.01.82,7.5,1.11,5.02.09,10.4.45,15-1.91"/><path class="b" d="M12.27,84.21c10.98,1.42,10.99-.34,20.83-2.66,3.65-.78,6.41-1.46,10,.08,3.72,1.41,7.55,3.57,11.66,2.99,2.56-.47,5.01-1.71,7.5-2.45,3.02-1.37,5.19-4.15,7.5-6.43,5.34-5.28,8.68-3.94,12.5,1.91,2.04,2.95,4.61,6.34,8.33,7.05,1.38.11,2.86-.36,4.17-.76,1.94-.52,3.92-1.27,5.83-1.89,3.52-.72,7.24-1.05,10.83-.97,2.18.08,3.99,1.63,5.83,2.62,3.69,2.29,7.81-.09,11.66-.46,2.57-.14,4.97,1.29,7.5,1.45,1.33.07,2.83-.12,4.17-.09,1.33.03,2.83.16,4.17.08,2.76-.31,5.56-.88,8.33-1.08,2.18-.19,4.48-.23,6.66.01,1.92.19,3.91.76,5.83.92,2.47.17,5.04.06,7.5-.23,2.24-.24,4.62-.59,6.66-1.61"/><path class="b" d="M12.27,82.45c4.19.38,8.35-.59,12.5-1,2.19-.21,4.48,0,6.66-.15,1.95-.1,3.96-.56,5.83-1.07,3.05-.8,6.19.32,9.16.97,3,.6,6.1,1.27,9.16,1.31,1.36-.03,2.84-.33,4.17-.61,1.36-.23,2.89-.44,4.17-.99,3.16-1.34,5.52-4.08,8.33-5.96,4.71-2.95,7.51-1.02,10.83,2.65,1.86,1.95,4.09,3.87,6.66,4.76,1.35.34,2.88-.04,4.17-.47,3.53-1.16,7.16-2.17,10.83-2.75,1.93-.39,3.88-1.17,5.83-1.44,3.47-.48,5.46,3.13,8.33,4.35,3.29,1.35,6.69-.82,10-1.05,3.4-.18,6.57,1.82,10,1.49,2.19-.13,4.49.17,6.66-.14,3.26-.73,6.63-1.38,10-1.12,5.55.18,11.09,1.31,16.66.94,2.5-.18,5.2-.19,7.5-1.33"/><path class="b" d="M12.27,80.15c2.25-.06,4.48-.84,6.66-1.29,3.35-.65,6.7.52,10,.97,1.9.22,3.95.21,5.83-.15,2.16-.52,4.41-1.25,6.66-.82,1.91.27,3.91.68,5.83.83,1.62.14,3.38.03,5,.17,3.3.4,6.67.59,10,.34,4.23-.02,7.84-2.42,11.66-3.88,7.21-2.86,9,.92,15,3.67,2.21.88,4.53-.28,6.66-.83,2.7-.73,5.57-.97,8.33-1.35,2-.34,3.95-1.27,5.83-1.99,5.53-1.99,7.34,5.2,13.33,4.5,2.52-.09,4.99-1.09,7.5-1.2,2.81-.13,5.54,1.09,8.33,1.21,2.19-.03,4.48.1,6.66-.09,2.74-.44,5.53-1.21,8.33-1.06,4.15.27,8.36.33,12.5.77,2.46.23,5.03.34,7.5.23,1.94-.06,4.07-.15,5.83-1.07"/><path class="b" d="M12.27,76.5c1.68-.17,3.36-.88,5-1.21,2.33-.51,4.59.55,6.66,1.45,1.57.61,3.31,1.14,5,1.28,1.91.12,3.94.14,5.83-.09,2.18-.42,4.43-1.04,6.66-.62,2.18.3,4.46.61,6.66.56,1.91-.06,3.92-.4,5.83-.36,4.42.21,8.89.67,13.33.61,3.37-.2,6.76-.97,10-1.89,3.27-1.15,6.09-.84,9.16.7,4.35,2.47,6.48.23,10.83-.05,2.75-.29,5.63.08,8.33-.58,2.24-.51,4.33-1.92,6.66-2.03,2.1-.15,4.04,1.12,5.83,2.06,2.25,1.29,4.91,1.91,7.5,1.8,2.78-.1,5.52-1.29,8.33-1.04,1.66.09,3.37.69,5,.93,2.18.18,4.48.15,6.66.02,1.63-.15,3.37-.55,5-.68,1.9-.17,3.93-.04,5.83.12,3.86.32,7.8.34,11.66.61,1.9.07,3.93.04,5.83.04,1.94-.02,4.08,0,5.83-.95"/><path class="b" d="M12.27,71.66c7.92-.75,7.82,2.9,14.16,4.12,2.46.28,5.03.08,7.5.14,1.64,0,3.37-.38,5-.42,2.48.03,5.02.4,7.5.38,2.78.11,5.6-.35,8.33-.78,2.18-.3,4.47-.35,6.66-.38,4.17.18,8.3,1.39,12.5,1.19,3.63.13,7.2-1.62,10.83-.9,1.34.25,2.8.77,4.17.89,1.66.12,3.39-.41,5-.75,1.32-.27,2.82-.36,4.17-.33,2.75-.01,5.6.43,8.33-.11,3.01-.6,6.04-1.96,9.16-1.51,4.69.81,9.29,3.4,14.16,2.52,1.89-.35,3.9-.85,5.83-.66,1.06.11,2.29.45,3.33.63,1.61.23,3.38.21,5,.19,2.76-.04,5.57-.61,8.33-.43,5.81.44,11.68.66,17.49.31,3.29-.37,6.92.96,10-.6"/><path class="b" d="M12.27,67.22c3.13.84,5.61,3.18,8.33,4.81,3.72,2.51,8.3,1.43,12.5,1.65,6.1.06,12.23.05,18.33,0,3.12-.16,6.1-1.44,9.16-1.94,5.59-.29,11.15,1.14,16.66,1.88,1.9.21,3.92.01,5.83-.03,1.91-.05,3.93.25,5.83.07,3.04-.38,6.07-1.37,9.16-1.18,2.48.04,5.02.54,7.5.44,2.51-.07,5.07-.58,7.5-1.16,3.57-.95,7.31-.28,10.83.57,2.14.68,4.37,1.64,6.66,1.35,1.63-.17,3.36-.62,5-.65,2.2.08,4.45.66,6.66.59,2.48.08,5.03-.3,7.5-.29,2.75.1,5.57.48,8.33.38,2.47-.08,5.03-.11,7.5-.24,1.91-.09,3.92-.41,5.83-.41,2.74.07,5.74,1.4,8.33.05"/><path class="b" d="M12.27,64.39c2.44,1.46,4.23,3.96,6.66,5.43,2.7,1.76,6.05,1.82,9.16,1.67,2.75-.08,5.58-.08,8.33-.06,4.15,0,8.35-.3,12.5-.07,1.91.08,3.94.33,5.83,0,1.97-.32,3.9-1.23,5.83-1.71,1.6-.28,3.38-.13,5-.27,2.19-.11,4.48-.3,6.66-.04,1.97.24,3.91,1.05,5.83,1.49,1.6.38,3.36.55,5,.58,4.19.15,8.34-.99,12.5-1.31,2.77-.3,5.59.28,8.33.6,2.46.25,5.06.25,7.5-.22,3.25-.8,6.62-1.62,10-1.19,1.05.11,2.32.2,3.33.52,2.13.77,4.34,1.86,6.66,1.7,2.47-.22,5-.8,7.5-.42,3.04.27,6.14-.09,9.16-.31,1.93-.04,3.92.49,5.83.66,1.9.18,3.93-.01,5.83-.18,2.18-.18,4.48-.12,6.66-.25,1.62-.08,3.37-.32,5-.27,2.73.14,5.72,1.52,8.33.22"/><path class="b" d="M12.27,63.12c2.47,1.84,4.39,4.73,7.5,5.59,2.41.68,5.02.62,7.5.61,3.88.05,7.8-.3,11.66-.67,3.87-.22,7.79.26,11.66.34,1.62.14,3.37.42,5,.3,2.24-.14,4.41-1.23,6.66-1.27,3.91-.01,7.75-1.9,11.66-1.29,1.91.45,3.9,1.05,5.83,1.36,2.75.53,5.59.3,8.33-.13,2.75-.17,5.58-.17,8.33-.26,4.74.05,9.37,1.73,14.16,1.07,2.21-.31,4.45-.99,6.66-1.24,2.45-.23,5.05-.29,7.5.03,1.93.47,3.84,1.47,5.83,1.69,1.92.23,3.93-.29,5.83-.49,1.9-.15,3.94-.1,5.83-.39,2.74-.33,5.64-1.56,8.33-.38,1.83.71,3.84,1.41,5.83,1.32,2.75-.2,5.57-.55,8.33-.36,2.47.1,5.03-.21,7.5-.01,2.45.19,5.18.86,7.5-.23"/><path class="b" d="M12.27,62.37c5.15,3.92,5.81,4.64,12.5,4.73,3.03.04,6.14.13,9.16-.18,2.48-.25,4.99-.96,7.5-.84,2.48.06,5.02.44,7.5.43,2.22-.16,4.47.4,6.66.59,1.93.17,3.93-.24,5.83-.47,2.52-.12,5.08-.6,7.5-1.31,1.59-.44,3.33-.95,5-.86,3.3.34,6.66,1.05,10,.86,1.35-.04,2.81-.49,4.17-.51,1.35.01,2.83.26,4.17.43,2.18.31,4.49.41,6.66.81,3.54.73,7.22,1.08,10.83.92,2.5-.11,5.02-.82,7.5-1.13,2.18-.29,4.47-.31,6.66-.41,1.7.06,3.39.83,5,1.3,2.44.82,5.06.22,7.5-.31,2.22-.35,4.56-.63,6.66-1.46,1.85-.62,3.82-1.83,5.83-1.37,1.47.49,2.83,1.6,4.17,2.36,3.26,2.05,7.23.75,10.83,1.08,2.75.12,5.58,0,8.33.07,2.47.01,5.16.35,7.5-.61"/><path class="b" d="M12.27,61.63c5.26,3.13,7.47,2.94,13.33,3.21,3.03.06,6.14.19,9.16-.03,1.93-.15,3.91-.67,5.83-.85,2.18-.24,4.47-.14,6.66-.15,1.91-.03,3.94-.41,5.83.02,1.63.32,3.35.82,5,1,3.03.23,6.17.02,9.16-.51,1.93-.36,3.91-1.02,5.83-1.41,1.61-.29,3.37-.31,5-.27,2.19.06,4.48.24,6.66,0,1.62-.26,3.35-.73,5-.36,5.51,1.13,10.97,2.96,16.66,2.64,2.19,0,4.5.03,6.66-.35,3.57-.71,7.18-1.58,10.83-1.71,2.61.07,4.9,1.86,7.5,2.04,1.66.13,3.4-.4,5-.8,1.96-.45,4.05-.94,5.83-1.9,4.16-2.22,5.74-4.43,10-.55,4.05,3.62,6.56,3.32,11.66,3.26,3.03,0,6.14.06,9.16-.07,2.21-.13,4.59-.19,6.66-1.06"/><path class="b" d="M12.27,60.44c1.84.77,3.84,1.42,5.83,1.63,2.75.25,5.58.25,8.33.52,3.31.05,6.69.27,10,.05,3.05-.35,6.1-1.19,9.16-1.48,1.93-.13,3.91-.67,5.83-.86,1.38-.05,2.88.32,4.17.79,4.18,1.86,8.86,1.94,13.33,1.31,2.51-.35,5-1.22,7.5-1.65,3-.56,6.16-.11,9.16-.61,4.26-1.55,8.46.74,12.5,1.92,3.76,1.08,7.8.57,11.66.65,5.12.11,9.85-3.06,15-2.44,2.54.61,4.79,2.53,7.5,2.46,1.38-.04,2.85-.55,4.17-.94,1.35-.41,2.89-.8,4.17-1.41,2.06-.94,3.89-2.52,5.83-3.66,4.65-2.4,7.78,3.69,11.66,5.17,2.06.89,4.46.81,6.66.82,5.07.14,10.24-.33,15-2.21"/><path class="b" d="M12.27,59.2c2.95.91,6.11.96,9.16,1,2.48.05,5.02.37,7.5.31,3.03-.05,6.15.23,9.16-.16,3.06-.53,6.09-1.52,9.16-2,4.51-1.09,5.68-1.54,10,.69,4.07,2.13,8.94,1.64,13.33.97,2.55-.45,4.96-1.7,7.5-2.2,2.16-.45,4.48-.22,6.66-.36,1.37-.12,2.79-.73,4.17-.82,3.94-.34,7.19,2.45,10.83,3.44,2.14.58,4.47.46,6.66.47,3.39.1,6.83-.3,10-1.56,2.62-.93,5.59-1.58,8.33-.78,2.67.97,5.35,3.09,8.33,2.08,1.07-.33,2.29-.93,3.33-1.34,1.32-.52,2.88-.91,4.17-1.52,2.34-1.03,4.35-2.88,6.66-3.97,5.94-2.34,8.55,4.55,13.33,6.31,3.17,1.07,6.72.84,10,.47,3.21-.4,6.04-2.27,9.16-2.96"/><path class="b" d="M12.27,57.78c3.56.59,7.24.42,10.83.52,4.7.02,9.46.14,14.16-.05,3.07-.36,6.08-1.44,9.16-1.78,1.93-.16,3.89-.88,5.83-.82,1.74.11,3.44.95,5,1.66,3.1,1.55,6.69.96,10,.62,1.95-.24,4.01-.66,5.83-1.41,1.89-.82,3.79-1.96,5.83-2.36,2.18-.46,4.48.09,6.66-.07,2.16-.43,4.47-1.12,6.66-.43,2.92.91,5.41,2.98,8.33,3.9,2.93.92,6.15.77,9.16.46,2.26-.23,4.49-1.07,6.66-1.69,2.43-.72,5.1-.6,7.5.17,5.57,2.3,6.52,2.77,11.66-.93,1.72-1.14,3.96-1.3,5.83-2.08,1.99-.76,3.89-2.03,5.83-2.9,2.11-.74,4.65-1.68,6.66-.2,1.86,1.3,3.34,3.3,5,4.82,3.07,2.96,7.66,3.43,11.66,2.49,1.36-.36,2.91-.78,4.17-1.43,1.52-.78,3.23-1.72,5-1.62"/><path class="b" d="M12.27,56.08c4.98.17,10.02-.02,15-.15,2.47.08,5.02.21,7.5.18,3.9-.03,7.75-1.24,11.66-1.03,2.2.09,4.48-.45,6.66-.08,2.72.56,5.53,1.64,8.33.85,3.59-.83,7.38-1.14,10.83-2.5,2.9-1.28,5.82-3.38,9.16-2.66,1.34.22,2.81.66,4.17.78,2.48-.05,5.08-.56,7.5.27,4.92,1.78,9.53,4.71,15,3.75,1.95-.26,3.93-.92,5.83-1.41,3.69-1.04,7.34.55,10.83,1.6,2.25.82,4.84.48,6.66-1.12,1.41-1.12,2.76-2.65,4.17-3.77,1.36-1.18,3.33-1.08,5-1.33,1.7-.27,3.45-.91,5-1.63,1.01-.48,2.27-.96,3.33-1.31,1.55-.67,3.49-1.02,5-.04,1.93,1.25,3.39,3.3,5,4.91,3.29,3.23,7.08,4.75,11.66,3.41,1.03-.31,2.31-.56,3.33-.89,1.82-.7,3.87-1.55,5.83-.93"/><path class="b" d="M12.27,53.8c4.7-.28,9.46-.47,14.16-.73,2.76.13,5.56.68,8.33.69,2.48.05,5.02-.4,7.5-.38,4.15.1,8.36.12,12.5.55,3.31.33,6.13-1.76,9.16-2.67,2.18-.67,4.52-1.16,6.66-1.94,1.96-.63,3.82-1.85,5.83-2.29,3.74-.69,6.51,2.77,10,3.36,3.3.33,6.71.18,10,.72,3.31.34,6.65,1.3,10,.96,2.24-.18,4.44-1.09,6.66-1.37,6.2-.12,10.22,6.46,16.66,1.28,1.45-1.18,2.86-2.75,4.17-4.08,1.3-1.37,3-2.74,5-2.65,3.73-.2,7.17-2,10.83-2.56,3.48-.83,6.11,2.15,8.33,4.36,2.37,2.1,5.12,4.28,8.33,4.79,1.92.31,3.94-.22,5.83-.49,2.49-.21,5.15-.78,7.5.39"/><path class="b" d="M12.27,50.79c4.98-.18,10.02-.66,15-.55,2.49.26,5.01.91,7.5,1.14,3.58.23,7.24.08,10.83.24,5.05.02,8.99.98,13.33-2.31,3.73-2.69,8.36-3.67,12.5-5.55,1.29-.51,2.75-1.19,4.17-1.15,4.76.74,6.82,6.69,11.66,7.38,6.75,1.17,13.44-1.24,19.99-2.54,2.45-.43,5.22-1.2,7.5.2,3.62,2.11,7.3,5.86,11.66,3.14,4.01-2.3,6.58-6.69,10.83-8.6,1.61-.41,3.39-.69,5-1.11,3.8-.95,8.1-1.06,11.66.76,1.71.91,3.36,2.21,5,3.22,1.01.59,2.32,1.13,3.33,1.74,2.75,1.65,6.05,1.91,9.16,1.54,2.87,0,5.77.75,8.33,2.02"/><path class="b" d="M12.27,47.68c5.26.25,10.57.09,15.83.34,2.5.22,5.01.96,7.5,1.27,2.46.27,5.03.24,7.5.26,4.19-.11,8.85.63,12.5-1.91,1.65-1.05,3.25-2.46,5-3.36,2.16-1.08,4.52-1.96,6.66-3.07,3.17-1.56,6.89-4.53,10-1.21,2.85,2.69,4.65,6.8,8.33,8.52,4.29,1.34,9.17,1.02,13.33-.65,2.39-.98,4.38-2.87,6.66-4.04,2.02-1.06,4.52-1.07,6.66-.41,3.35,1.43,5.62,4.85,9.16,5.93,3.79,1,6.58-2.79,9.16-4.94,1.93-1.79,4.16-3.49,6.66-4.37,2.42-.6,4.99-1.32,7.5-1.01,4.28.82,8.34,2.71,12.5,4,1.3.45,2.84.72,4.17,1.08,2.12.72,4.41,1.37,6.66,1.39,5.35-.41,7.04,1.04,11.66,3.18"/><path class="b" d="M12.27,45.27c3.31.33,6.68.69,10,.83,2.47.15,5.03.03,7.5.25,2.2.22,4.45.81,6.66.95,2.19.13,4.47-.05,6.66-.08,3.05-.09,6.33.23,9.16-1.13,2.35-1.09,4.39-2.91,6.66-4.14,1.87-.89,4-1.44,5.83-2.42,1.7-.85,3.39-2.01,5-3.01,1.21-.73,2.71-1.52,4.17-1.24,3.56,1.29,5.19,5.34,7.5,8.07,2.53,3.46,5.03,4.16,9.16,3.99,5.22.06,8.64.31,12.5-3.8,1.59-1.5,3.48-3.33,5.83-3.18,4.33.35,7.17,4.16,10.83,6.03,1.49.81,3.41,1.33,5,.51,2.87-1.53,4.89-4.37,7.5-6.28,3.01-2.3,7.22-2.69,10.83-1.85,3.11.97,5.94,2.9,9.16,3.58,2.7.67,5.57.72,8.33.7,1.63.08,3.37.42,5,.49,1.91.12,3.92-.25,5.83-.24,3.06.15,5.53,2.42,8.33,3.42"/><path class="b" d="M12.27,43.82c5.81.53,11.67.68,17.49.8,1.91.11,3.92.42,5.83.52,1.91.09,3.93-.12,5.83-.28,2.75-.29,5.67-.06,8.33-.92,2.63-.95,4.97-2.69,7.5-3.85,1.54-.79,3.41-.96,5-1.61,3.34-1.29,5.95-4,9.16-5.5,5.89-1.95,9.13,9.74,14.16,11.62,2.1.84,4.47.49,6.66.44,2.19-.05,4.51.37,6.66-.15,2.89-.72,4.84-3.36,7.5-4.55,5.65-1.97,10.47,3.89,15.83,4.76,6.25.5,8.19-9.58,15.83-7.26,6.62,1.98,8.79,5.67,16.66,5.31,2.19-.03,4.47-.39,6.66-.44,2.47.06,5.05.19,7.5-.26,4.49-1.08,6.83,1.02,10.83,2.29"/><path class="b" d="M12.27,42.53c3.87.18,7.8-.08,11.66.11,4.7.06,9.46.48,14.16.19,3.31-.38,6.73-.39,10-1.05,1.99-.54,3.88-1.71,5.83-2.36,2.11-.78,4.44-1.06,6.66-1.33,4.03-1.08,6.56-4.95,10-7.07,6.05-3.54,10.56,8.66,15,11.06,2.81,1.62,6.13.33,9.16.67,6.78,1.15,8.33-2.72,14.16-2.7,2.8.1,5.66.52,8.33,1.39,2.65.77,5.67,2.38,8.33.81,6.58-4.51,6.95-6.97,15-2.38,6.43,3.78,12.16,2.75,19.16,1.96,2.18-.2,4.48-.02,6.66-.13,1.91-.09,3.92-.44,5.83-.35,2.52.21,4.98,1.28,7.5,1.52"/><path class="b" d="M12.27,40.72c3.03.07,6.13-.15,9.16-.19,2.75.02,5.58.23,8.33.21,3.32.06,6.69-.03,10-.31,2.19-.12,4.48-.09,6.66-.31,1.71-.12,3.4-.84,5-1.38,1.3-.4,2.81-.62,4.17-.66,1.62-.06,3.39.02,5-.22,4.19-1.3,6.44-5.74,10-8.06,2.76-1.96,6.31.06,8.33,2.2,3.05,3.07,5.02,8.65,10,8.75,1.63-.03,3.36-.43,5-.35,1.63.07,3.37.44,5,.32,2.22-.19,4.46-.88,6.66-1.16,2.74-.31,5.58-.41,8.33-.48,1.65.02,3.42.37,5,.84,1.85.55,3.93,1.18,5.83.54,2.78-.96,5.19-3.5,8.33-3.09,2.32.32,4.49,1.52,6.66,2.32,2.09.78,4.44,1.06,6.66,1.05,4.15,0,8.36.05,12.5-.37,3.87-.16,7.8-.13,11.66-.34,3.05-.06,6.11.83,9.16.71"/><path class="b" d="M12.27,38.54c3.32.1,6.68-.16,10-.24,5.26.32,10.57.34,15.83.01,4.44-.07,8.97.46,13.33-.68,2.46-.37,5.03-.03,7.5-.08,4.68.13,7.41-4.43,10.83-6.9,2.89-2.35,7.53-2.38,10,.6,2.67,2.74,4.72,7.5,9.16,7.3,1.34-.07,2.82-.38,4.17-.4,1.63,0,3.37.37,5,.4,3.88-.17,7.8-.7,11.66-1.05,2.46-.34,5.05-.86,7.5-.17,2.15.57,4.4,1.5,6.66,1.14,1.95-.28,3.86-1.28,5.83-1.45,2.83-.17,5.53,1.22,8.33,1.44,3.04.32,6.13-.46,9.16-.6,1.92-.21,3.94.21,5.83.46,1.89.24,3.93.24,5.83.21,3.87,0,7.79-.13,11.66-.22,3.03.05,6.13.39,9.16.12"/><path class="b" d="M12.27,36.31c3.04.11,6.13-.03,9.16-.3,1.92-.07,3.92.29,5.83.34,3.87.08,7.79-.18,11.66-.22,3.31.19,6.68.3,10,.21,3.31-.26,6.68-.06,10-.06,2.69.16,5.31-.8,7.5-2.34,2.08-1.39,4.27-2.87,6.66-3.67,1.56-.52,3.34-1.26,5-.75,3.62,1.36,5.22,5.96,9.16,6.72,2.19.36,4.47-.37,6.66-.16,4.14.54,8.36.07,12.5-.33,2.49-.2,5.01-.92,7.5-1.11,1.99-.1,3.97.67,5.83,1.25,2.42.79,5.04.36,7.5.05,1.91-.23,3.93.12,5.83.35,2.53.29,5.12-.35,7.5-1.18,2.9-1,6.14-1.38,9.16-.84,2.17.59,4.41,1.39,6.66,1.61,7.75.59,15.57.6,23.33.3"/><path class="b" d="M12.27,34.12c3.05.11,6.14-.05,9.16-.38,1.92-.13,3.92.23,5.83.34,3.59.19,7.24-.05,10.83-.13,2.75.12,5.58.29,8.33.13,2.47-.05,5.03.11,7.5.02,2.19-.04,4.47-.24,6.66-.12,2.84.45,5.73-.06,8.33-1.25,2.47-.97,5-2.05,7.5-2.94,2.04-.68,4.18.2,5.83,1.41,1.51,1.06,3.16,2.26,5,2.68,1.88.45,3.92.22,5.83.23,1.91.03,3.93.1,5.83-.03,4.75-.13,9.46-1.13,14.16-1.66,2.86-.19,5.54,1.27,8.33,1.63,1.9.22,3.93.08,5.83.06,1.91-.03,3.95.21,5.83-.15,3.23-.72,6-2.87,9.16-3.79,2.95-.67,6.31-.43,9.16.54,2.67.96,5.51,1.68,8.33,2.03,1.92.27,3.91.8,5.83,1.08,4.67.69,9.46.23,14.16.2"/><path class="b" d="M12.27,31.96c3.61.13,7.24-.19,10.83-.55,2.2-.03,4.47.34,6.66.43,2.75.2,5.58.1,8.33.04,3.05.17,6.14.02,9.16-.39,1.34-.13,2.83,0,4.17-.03,1.92-.05,3.93-.35,5.83-.62,1.33-.18,2.84-.3,4.17-.01,1.05.28,2.26.73,3.33.96,4.6.83,8.91-1.82,13.33-2.62,4.09-.73,7.72,1.96,11.66,2.46,5.25.53,10.63.04,15.83-.78,2.45-.4,5.01-.8,7.5-.63,1.95.15,3.93.79,5.83,1.22,2.15.51,4.47.52,6.66.52,1.91-.01,3.98.06,5.83-.52,1.87-.61,3.46-2.07,5-3.25,1.67-1.27,3.72-2.35,5.83-2.58,1.63-.17,3.38.15,5,.29,1.92.02,3.96.08,5.83.57,4.05,1.01,7.72,3.24,11.66,4.54,4.83,1.57,10.02.68,15,.81"/><path class="b" d="M12.27,29.76c2.47-.03,5.03.07,7.5-.1,1.91-.14,3.91-.63,5.83-.53,3.61-.03,7.22.72,10.83.62,1.91-.06,3.93.07,5.83-.06,1.94-.14,3.92-.75,5.83-1.06,2.19-.2,4.5-.13,6.66-.61,2.17-.37,4.45-1.17,6.66-.78,1.99.55,3.77,2,5.83,2.36,3.91.52,7.86-.81,11.66-1.56,2.69-.62,5.59-1.41,8.33-.62,4.31,1.25,8.87,1.54,13.33,1.28,2.2-.21,4.46-.72,6.66-.84,1.91-.1,3.94.11,5.83.38,3.56.63,7.19,1.41,10.83,1.3,1.92,0,3.99,0,5.83-.61,5.05-1.67,6.29-8.69,12.5-7.59,1.63.23,3.35.79,5,.83,1.92-.05,3.9-.92,5.83-.49,2.64.63,4.57,2.86,6.66,4.43,5.56,4.84,13.25,3.24,19.99,3.44"/><path class="b" d="M12.27,27.56c2.75-.08,5.58.02,8.33-.02,2.2-.16,4.45-.61,6.66-.61,2.21-.12,4.48.32,6.66.55,2.19.17,4.48.04,6.66.09,2.57.08,5.06-.84,7.5-1.54,1.32-.31,2.83-.27,4.17-.41,1.64-.14,3.39-.46,5-.81,1.6-.33,3.39-.75,5-.28,1.7.65,3.26,1.92,5,2.5,3.21.98,6.73.43,10,0,2.06-.35,4.08-1.29,5.83-2.4.98-.6,2.17-1.33,3.33-1.47,2.84-.13,5.6.99,8.33,1.58,1.6.36,3.35.71,5,.78,1.91,0,3.92-.39,5.83-.36,2.52.01,5.02.86,7.5,1.18,4.66.71,9.48.72,14.16.21,8.12-1.2,7.24-11.64,15-8.74,2.1.73,4.47,1.69,6.66.77,1-.39,2.24-.84,3.33-.75,2.64.47,4.19,3.17,5.83,5.03,2.3,2.99,5.37,4.56,9.16,4.56,4.15.2,8.35-.19,12.5-.1"/><path class="b" d="M12.27,25.29c3.04-.17,6.13-.05,9.16.08,2.19-.1,4.47-.4,6.66-.44,1.92-.06,3.92.28,5.83.41,2.75.01,5.58,0,8.33,0,2.29-.1,4.45-1.18,6.66-1.64,1.9-.22,3.93-.19,5.83-.41,1.92-.2,3.91-.66,5.83-.81,1.76-.19,3.45.71,5,1.43,1.28.58,2.78,1.03,4.17,1.21,3.85.28,8.3.91,11.66-1.39,1.45-1.02,2.76-2.54,4.17-3.61,3.73-2.19,7.96.43,11.66,1.42,2.4.87,5.02.4,7.5.59,2.56.19,4.99,1.4,7.5,1.83,4.14.71,8.35-.08,12.5-.25,11.27.4,9.02-11.99,17.49-8.33,2.07.85,4.47,1.79,6.66.83.99-.38,2.27-.72,3.33-.42,3.41,1.48,4.69,5.62,7.5,7.86,2.31,1.92,5.51,1.74,8.33,1.73,3.87.06,7.79-.18,11.66-.19"/><path class="b" d="M12.27,22.96c3.04-.06,6.13.1,9.16.21,3.03-.11,6.13-.42,9.16-.11,2.2.23,4.48.02,6.66-.16,1.92-.08,3.92.37,5.83.25,1.97-.11,3.91-.94,5.83-1.32,3.86-.33,7.8-.28,11.66-.49,1.95-.08,3.93.48,5.83.83,1.61.29,3.37.43,5,.52,8.68.82,8.34,1.2,14.16-5.37,3.67-2.89,8.51-.49,12.5.37,1.87.51,3.95.54,5.83,1.02,1.68.41,3.39,1.17,5,1.8,4.22,1.64,8.94,1,13.33.59,2.77-.28,5.77.17,8.33-1.17,1.97-.99,3.59-2.79,5-4.46,1.32-1.79,3.63-2.85,5.83-2.22,1.93.45,3.84,1.46,5.83,1.63,1.04.02,2.3-.17,3.33.05.83.18,1.85.76,2.5,1.3,2.89,2.44,4.9,6.81,9.16,6.91,1.91.07,3.92-.19,5.83-.14,3.87.15,7.79.2,11.66.07"/><path class="b" d="M12.27,20.6c4.7.49,9.46.35,14.16.15,3.06.18,6.14.38,9.16-.27,3.05-.52,6.11.84,9.16.41,2.74-.44,5.53-1.07,8.33-1.03,6.1-.12,12.22.69,18.33.34,3.48-.19,7.08,2.17,10-.75,1.5-1.4,2.73-3.36,4.17-4.82,2.76-2.32,6.71-1.18,10-1.22,6.91-.09,8.51,2.8,14.16,4.92,1.86.51,3.93.29,5.83.56,2.74.29,5.58.4,8.33.16,1.92-.1,3.98-.2,5.83-.75,3.32-.83,5.58-3.64,8.33-5.44,2.66-1.71,5.65-.84,8.33.31,1.35.47,2.96.74,4.17,1.56,3.29,2.07,5.78,6.08,10,6.22,2.48.05,5.01-.56,7.5-.46,3.87.18,7.78.63,11.66.42"/><path class="b" d="M12.27,18.09c4.06,1.04,8.35.63,12.5.52,1.91-.09,3.92.23,5.83.15,1.93-.09,3.9-.76,5.83-.82,2.77.09,5.54.96,8.33.83,3.88-.08,7.78-.85,11.66-.8,3.03.07,6.13.39,9.16.4,2.19.04,4.47-.2,6.66-.21,2.2-.05,4.48,1.03,6.66.39,3.58-1.13,4.77-5.79,8.33-6.84,1.89-.36,3.93.04,5.83-.13,1.65-.11,3.37-.62,5-.89,3.9-.48,6.63,3.2,10,4.51,1.26.58,2.8.68,4.17.51,1.07-.05,2.32.21,3.33.52,1.87.57,3.87,1.21,5.83,1.36,3.05.1,6.19-.41,9.16-1.07,1.71-.43,3.51-1.13,5-2.07,1.63-1.06,3.24-2.45,5-3.3,2.18-1.13,4.68-.2,6.66.92,3.6,1.6,6.07,5.26,10,6.25,3.53.98,7.24.03,10.83.07,3.87.07,7.78.55,11.66.3"/><path class="b" d="M12.27,15.22c3.6,1.78,7.78,1.28,11.66,1.33,1.91-.06,3.93.09,5.83-.03,1.64-.11,3.36-.59,5-.75,1.93-.19,3.92.38,5.83.54,2.74.27,5.58.29,8.33.24,2.2-.03,4.47-.39,6.66-.57,1.91-.15,3.93,0,5.83.14,3.59.28,7.24.29,10.83.24,1.63,0,3.37.29,5,.15,2.29-.21,4.2-1.82,5.83-3.32,1.16-1.04,2.53-2.31,4.17-2.42,1.91-.07,3.92.51,5.83.23,2.02-.23,3.89-1.35,5.83-1.85,3.65-.47,6.47,2.87,10,3.25,1.07.17,2.29-.19,3.33-.39,1.48-.15,2.94.72,4.17,1.44,4.99,3.29,7.89,1.96,13.33,1.38,2.91-.31,6.02-.79,8.33-2.74,1.49-1.11,3.08-2.58,5-2.85,4.37-.01,7.07,4.4,10.83,5.99,4.2,1.66,8.9,1.3,13.33,1.21,2.47-.08,5.03.1,7.5.11,1.62-.04,3.37-.27,5-.24"/><path class="b" d="M12.27,11.91c2.67,1.83,6,2.24,9.16,2.29,2.19.04,4.48.16,6.66.02,3.31-.26,6.69-1.1,10-.28,4.12.53,8.35.31,12.5.43,2.48.01,5.02-.47,7.5-.49,4.71.16,9.45.62,14.16.48,3.51.12,6.94-.05,10-1.98,1.29-.71,2.71-1.59,4.17-1.9,1.63-.27,3.37.25,5,.36,1.98.17,4.03-.37,5.83-1.16,3.13-1.64,6.67-.69,10-.55,1.06.02,2.33-.15,3.33-.52.98-.49,2.27-.88,3.33-.41,1.8.84,3.32,2.43,5,3.46,1.69,1.15,3.84,1.5,5.83,1.14,1.9-.17,3.93-.18,5.83-.11,3.02.19,5.9-.1,8.33-2.09,1.23-.87,2.65-1.92,4.17-2.21,4.18-.32,6.98,3.9,10.83,4.87,5.15,1.23,10.56,1.1,15.83,1.07,1.62,0,3.38.08,5-.06,1.62-.16,3.37-.49,5-.43"/></svg>